<?xml version="1.0" encoding="UTF-8"?>
<!-- Generated by Pixelmator Pro 3.5.8 -->
<svg width="1000" height="700" viewBox="0 0 1000 700" xmlns="http://www.w3.org/2000/svg">
    <path id="ID" fill="#d1dbdd" stroke="#000000" stroke-width="0.82" d="M 182.029999 213.350006 L 189.639999 182.900024 L 190.860001 178.660034 L 193.110001 173.859985 L 192.419998 172.640015 L 190.169998 172.589966 L 189.039993 171.089966 L 189.440002 169.98999 L 189.75 167.25 L 191.169998 165.27002 L 193.850006 162.030029 L 195.470001 161.059998 L 196.5 160.030029 L 197.699997 157.469971 L 201.139999 152.299988 L 204.589996 148.440002 L 204.789993 145.089966 L 201.75 142.75 L 200.369995 138.849976 L 212.509995 82.539978 L 224.580002 84.799988 L 220.649994 103.799988 L 223.839996 110.450012 L 222.419998 114.599976 L 224.169998 118.700012 L 226.970001 119.839966 L 230.389999 128.330017 L 233.509995 132.26001 L 233.960007 133.289978 L 236.940002 134.289978 L 237.270004 136.179993 L 231.059998 151.619995 L 230.919998 153.900024 L 233.270004 156.839966 L 234.089996 156.799988 L 238.449997 154.099976 L 239.070007 153.140015 L 240.440002 153.72998 L 240.199997 158.47998 L 242.639999 169.679993 L 246.139999 172.47998 L 247.639999 174.419983 L 247.320007 177.559998 L 247.949997 180.549988 L 248.899994 181.52002 L 251.100006 179.429993 L 253.649994 179.469971 L 256.25 180.650024 L 258.720001 180.039978 L 262.119995 179.900024 L 265.660004 181.339966 L 268.100006 181.059998 L 268.540009 178.359985 L 271.160004 177.679993 L 272.290009 179.02002 L 272.670013 181.650024 L 273.940002 182.72998 L 266.140015 230.160004 C 266.140015 230.160004 230.75 223.630005 224.529999 222.279999 Z"/>
    <text id="text1" xml:space="preserve" x="221" y="193" font-family="Arial" font-size="15.4" fill="#000000">ID</text>
    <path id="HI" fill="#d1dbdd" stroke="#000000" stroke-width="0.82" d="M 257.209991 518.950012 L 258.959991 515.789978 L 260.959991 515.48999 L 261.25 516.200012 L 259.399994 518.940002 L 257.220001 518.940002 Z M 266.290009 515.659973 L 271.769989 517.940002 L 273.630005 517.650024 L 275.070007 514.210022 L 274.5 511.190002 L 270.769989 510.790009 L 267.170013 512.349976 L 266.299988 515.659973 Z M 293.660004 524.559998 L 296.959991 529.440002 L 299.119995 529.150024 L 300.130005 528.719971 L 301.429993 529.869995 L 304.73999 529.72998 L 305.600006 528.429993 L 303.019989 526.849976 L 301.290009 523.549988 L 299.420013 520.380005 L 294.23999 522.97998 Z M 311.660004 532.460022 L 312.809998 530.73999 L 316.98999 531.599976 L 317.559998 531.169983 L 323.029999 531.73999 L 322.73999 532.890015 L 320.440002 534.190002 L 316.540009 533.890015 L 311.649994 532.460022 Z M 316.420013 537.059998 L 318.140015 540.5 L 320.890015 539.5 L 321.190002 538.059998 L 319.73999 536.210022 L 316.429993 535.909973 L 316.429993 537.059998 Z M 322.609985 536.059998 L 324.619995 533.460022 L 328.799988 535.619995 L 332.679993 536.630005 L 336.570007 539.059998 L 336.570007 540.789978 L 333.399994 542.369995 L 329.089996 543.22998 L 326.929993 541.950012 L 322.600006 536.070007 Z M 337.440002 549.849976 L 338.880005 548.700012 L 341.910004 550.130005 L 348.679993 553.299988 L 351.700012 555.179993 L 353.140015 557.330017 L 354.869995 561.200012 L 358.459991 563.5 L 358.170013 564.659973 L 354.720001 567.530029 L 350.970001 568.830017 L 349.670013 568.25 L 346.929993 569.830017 L 344.769989 572.710022 L 342.75 575.289978 L 341.149994 575.150024 L 337.98999 572.849976 L 337.709991 568.820007 L 338.269989 566.669983 L 336.829987 561.640015 L 334.950012 560.049988 L 334.809998 557.76001 L 336.820007 556.900024 L 338.700012 554.179993 L 339.130005 553.320007 L 337.700012 551.75 L 337.390015 549.880005 Z"/>
    <text id="text2" xml:space="preserve" x="311" y="560" font-family="Arial" font-size="15.4" fill="#000000">HI</text>
    <path id="AK" fill="#d1dbdd" stroke="#000000" stroke-width="0.82" d="M 190.380005 460.600006 L 190.089996 536.5 L 191.529999 537.349976 L 194.270004 537.48999 L 195.559998 536.48999 L 197.860001 536.48999 L 198.009995 539.049988 L 204.210007 545.109985 L 204.630005 547.409973 L 207.639999 545.679993 L 208.229996 545.52002 L 208.520004 542.789978 L 209.809998 541.349976 L 210.809998 541.200012 L 212.539993 539.900024 L 215.279999 541.75 L 215.860001 544.349976 L 217.580002 545.349976 L 218.610001 547.52002 L 222.059998 549.109985 L 225.089996 554.429993 L 227.559998 557.880005 L 229.559998 560.299988 L 230.860001 563.599976 L 235.320007 565.190002 L 239.940002 567.059998 L 240.789993 570.940002 L 241.199997 573.669983 L 240.350006 576.690002 L 238.770004 578.700012 L 237.330002 577.97998 L 236.029999 575.25 L 233.580002 573.950012 L 232 572.950012 L 231.279999 573.669983 L 232.580002 576.119995 L 232.720001 579.419983 L 231.720001 579.849976 L 229.970001 578.130005 L 228.119995 576.97998 L 228.529999 578.419983 L 229.690002 580 L 228.970001 580.719971 C 228.970001 580.719971 228.25 580.419983 227.809998 579.849976 C 227.15831 578.861145 226.534714 577.854126 225.940002 576.830017 L 225.080002 574.830017 C 225.080002 574.830017 224.789993 575.969971 224.220001 575.679993 C 223.639999 575.400024 223.070007 574.390015 223.070007 574.390015 L 224.649994 572.669983 L 223.350006 571.369995 L 223.350006 566.909973 L 222.639999 566.909973 L 221.919998 569.929993 L 220.919998 570.359985 L 220.050003 567.059998 L 219.470001 563.76001 L 218.75 563.320007 L 219.029999 568.349976 L 219.029999 569.349976 L 217.75 568.210022 L 214.589996 562.890015 L 212.710007 562.460022 L 212.130005 559.159973 L 210.690002 556.580017 L 209.259995 555.559998 L 209.259995 553.559998 L 211.119995 552.390015 L 210.690002 552.109985 L 208.389999 552.669983 L 205.360001 550.51001 L 203.059998 547.929993 L 198.740005 545.630005 L 195.130005 543.320007 L 196.279999 540.440002 L 196.279999 539 L 194.690002 540.440002 L 192.130005 541.440002 L 188.800003 540.440002 L 183.770004 538.280029 L 178.860001 538.280029 L 178.279999 538.710022 L 172.529999 535.27002 L 170.649994 534.98999 L 168.190002 529.809998 L 165.029999 530.099976 L 161.839996 531.400024 L 162.279999 535.419983 L 163.309998 532.830017 L 164.160004 533.119995 L 162.860001 537 L 165.759995 534.559998 L 166.330002 535.98999 L 162.869995 539.859985 L 161.740005 539.559998 L 161.300003 537.840027 L 160.149994 537.119995 L 159 538.119995 L 156.529999 536.570007 L 153.809998 538.419983 L 152.229996 540.299988 L 149.199997 542.179993 L 145.009995 542.030029 L 144.580002 540.150024 L 147.899994 539.580017 L 147.899994 538.450012 L 145.869995 537.859985 L 146.75 535.710022 L 148.770004 532.27002 L 148.770004 530.679993 L 148.910004 529.969971 L 152.809998 527.950012 L 153.679993 529.099976 L 156.119995 529.099976 L 154.970001 526.799988 L 151.649994 526.51001 L 147.199997 528.960022 L 145.039993 531.97998 L 143.449997 534.280029 L 142.449997 536.289978 L 138.690002 537.570007 L 135.960007 539.869995 L 135.660004 541.309998 L 137.679993 542.169983 L 138.399994 544.030029 L 135.949997 546.909973 L 130.179993 550.650024 L 123.260002 554.380005 L 121.389999 555.380005 L 116.639999 556.409973 L 111.870003 558.409973 L 113.470001 559.539978 L 112.169998 560.840027 L 111.739998 561.849976 L 109.290001 560.98999 L 106.419998 561.130005 L 105.699997 563.150024 L 104.830002 563.150024 L 105.099998 560.98999 L 101.940002 562.140015 L 99.339996 563 L 96.309998 561.849976 L 93.709999 563.580017 L 90.839996 563.580017 L 88.949997 564.72998 L 87.510002 565.450012 L 85.639999 565.150024 L 83.339996 564.150024 L 81.309998 564.72998 L 80.449997 565.590027 L 79.010002 564.590027 L 79.010002 562.859985 L 81.730003 561.710022 L 87.349998 562.280029 L 91.25 560.849976 L 93.099998 559 L 95.699997 558.409973 L 97.290001 557.690002 L 99.730003 557.840027 L 101.169998 558.969971 L 102.040001 558.690002 L 104.059998 556.23999 L 106.779999 555.380005 L 109.809998 554.820007 L 110.959999 554.530029 L 111.529999 554.960022 L 112.25 554.960022 L 113.410004 551.640015 L 117.010002 550.349976 L 118.75 547.059998 L 120.760002 543.030029 L 122.199997 541.72998 L 122.489998 539.440002 L 121.050003 540.590027 L 118.019997 541.159973 L 117.440002 539 L 116.290001 538.710022 L 115.43 539.580017 L 115.290001 542.179993 L 113.989998 542.030029 L 112.699997 536.859985 L 111.550003 537.98999 L 110.550003 537.570007 L 110.25 535.849976 L 106.660004 535.98999 L 104.790001 537 L 102.470001 536.710022 L 103.769997 535.409973 L 104.209999 533.109985 L 103.639999 531.390015 L 104.93 530.530029 L 106.080002 530.390015 L 105.5 528.799988 L 105.5 524.919983 L 104.629997 524.059998 L 103.910004 525.359985 L 98.440002 525.359985 L 97.139999 524.200012 L 96.57 520.75 L 94.690002 517.590027 L 94.690002 516.72998 L 96.57 516.01001 L 96.709999 514.159973 L 97.720001 513.130005 L 97 512.72998 L 95.849998 513.130005 L 94.82 510.700012 L 95.699997 506.230011 L 99.730003 503.359985 L 102.040001 501.920013 L 103.769997 498.619995 L 106.230003 497.459991 L 108.529999 498.48999 L 108.830002 500.649994 L 110.980003 500.339996 L 113.849998 498.179993 L 115.290001 498.769989 L 116.160004 499.339996 L 117.599998 499.339996 L 119.620003 498.190002 L 120.339996 494.320007 C 120.339996 494.320007 120.639999 491.75 121.209999 491.320007 C 121.779999 490.880005 122.07 490.450012 122.07 490.450012 L 121.07 488.720001 L 118.769997 489.440002 L 115.889999 490.160004 L 114.139999 489.730011 L 110.980003 488.149994 L 106.510002 488 L 103.349998 484.700012 L 103.75 481.25 L 104.349998 479.089996 L 102.470001 477.51001 L 100.730003 474.209991 L 101.169998 473.480011 L 107.230003 473.049988 L 109.099998 473.049988 L 109.959999 473.910004 L 110.540001 473.910004 L 110.389999 472.480011 L 113.849998 471.910004 L 116.150002 472.220001 L 117.449997 473.209991 L 116.150002 475.079987 L 115.720001 476.369995 L 118.169998 477.809998 L 122.629997 479.390015 L 124.230003 478.529999 L 122.199997 474.640015 L 121.339996 471.769989 L 122.199997 471.049988 L 119.18 469.329987 L 118.75 468.309998 L 119.18 466.869995 L 118.459999 463.429993 L 115.860001 459.26001 L 113.709999 455.51001 L 116.279999 453.790009 L 119.18 453.790009 L 120.75 454.359985 L 124.5 454.220001 L 127.82 451.029999 L 128.820007 448.329987 L 132.149994 446.170013 L 133.589996 447.029999 L 136.059998 446.450012 L 139.339996 444.589996 L 140.369995 444.440002 L 141.229996 445.160004 L 145.259995 445.019989 L 147.720001 442.279999 L 148.720001 442.279999 L 151.880005 444.440002 L 153.630005 446.309998 L 153.190002 447.309998 L 153.759995 448.320007 L 155.199997 446.890015 L 158.660004 447.170013 L 158.949997 450.480011 L 160.669998 451.76001 L 167.020004 452.350006 L 172.639999 456.089996 L 173.929993 455.230011 L 178.550003 457.529999 L 180.429993 456.970001 L 182.160004 456.25 L 186.490005 457.980011 L 190.369995 460.559998 Z M 87.830002 486.339996 L 89.699997 491.079987 L 89.559998 491.950012 L 86.959999 491.660004 L 85.389999 488.059998 L 83.790001 486.769989 L 81.639999 486.769989 L 81.5 484.470001 L 83.089996 482.309998 L 84.110001 484.470001 L 85.410004 485.769989 L 87.849998 486.339996 Z M 85.529999 516.080017 L 88.830002 516.799988 L 92.150002 517.659973 L 92.870003 518.52002 L 91.440002 521.830017 L 88.690002 521.690002 L 85.669998 518.52002 Z M 67.089996 503.589996 L 68.110001 505.890015 L 69.110001 507.320007 L 68.110001 508.040009 L 66.230003 505.309998 L 66.230003 503.579987 L 67.099998 503.579987 Z M 54.860001 568.549988 L 57.880001 566.530029 L 60.900002 565.669983 L 63.23 565.960022 L 63.66 567.400024 L 65.379997 567.830017 L 67.110001 566.099976 L 66.809998 564.669983 L 69.279999 564.090027 L 71.849998 566.390015 L 70.849998 567.969971 L 66.949997 568.969971 L 64.510002 568.549988 L 61.189999 567.549988 L 57.290001 568.830017 L 55.849998 569.130005 L 54.849998 568.549988 Z M 98.5 564.52002 L 99.940002 566.25 L 101.82 564.809998 L 100.519997 563.659973 Z M 101.089996 567.25 L 102.120003 565.23999 L 103.959999 565.530029 L 103.239998 567.25 Z M 122.120003 565.530029 L 123.419998 567.109985 L 124.290001 566.109985 L 123.57 564.380005 L 122.129997 565.530029 Z M 129.899994 554.469971 L 130.910004 559.630005 L 133.5 560.349976 L 137.970001 557.780029 L 141.869995 555.47998 L 140.410004 553.320007 L 140.850006 551.159973 L 138.970001 552.320007 L 136.380005 551.599976 L 137.820007 550.599976 L 139.570007 551.309998 L 143.020004 549.72998 L 143.449997 548.450012 L 141.289993 547.72998 L 142.009995 546.01001 L 139.550003 547.72998 L 135.389999 550.890015 L 131.080002 553.48999 L 129.910004 554.48999 Z M 167.630005 536.799988 L 169.789993 535.5 L 168.940002 533.919983 L 167.360001 534.780029 L 167.639999 536.789978 Z"/>
    <text id="text3" xml:space="preserve" x="151" y="501" font-family="Arial" font-size="15.4" fill="#000000">AK</text>
    <path id="FL" fill="#cc3333" stroke="#000000" stroke-width="0.82" d="M 726.51001 447.690002 L 728.539978 454.190002 L 731.849976 462.859985 L 736.609985 471.200012 L 739.929993 476.799988 L 744.23999 481.700012 L 747.840027 485 L 749.27002 487.570007 L 748.27002 488.730011 L 747.559998 489.880005 L 750.140015 496.480011 L 752.73999 499.079987 L 755.049988 503.820007 L 758.23999 508.98999 L 762.26001 516.320007 L 763.409973 523.059998 L 763.820007 533.700012 L 764.409973 535.280029 L 764.119995 538.289978 L 761.960022 539.440002 L 762.23999 541.169983 L 761.669983 542.890015 L 761.969971 545.049988 L 762.390015 546.780029 L 759.940002 549.650024 L 757.210022 550.950012 L 753.75 551.090027 L 752.450012 552.530029 L 750.289978 553.390015 L 749.130005 552.960022 L 748.130005 552.099976 L 747.830017 549.5 L 747.119995 546.48999 L 744.090027 541.890015 L 740.900024 539.880005 L 737.450012 539.580017 L 736.72998 540.73999 L 734 536.859985 L 733.419983 533.700012 L 731.119995 530.099976 L 729.539978 529.099976 L 728.109985 530.969971 L 726.51001 530.679993 L 724.650024 526.219971 L 722.049988 522.77002 L 719.460022 518.01001 L 717.169983 515.280029 L 713.98999 511.98999 L 715.869995 509.839996 L 718.73999 504.940002 L 718.609985 503.51001 L 714.570007 502.649994 L 713.130005 503.220001 L 713.429993 503.799988 L 715.72998 504.660004 L 714.429993 508.690002 L 713.710022 509.119995 L 712.130005 505.519989 L 710.969971 501.220001 L 710.669983 498.769989 L 711.97998 494.600006 L 711.97998 486.130005 L 709.23999 482.829987 L 708.090027 480.100006 L 703.469971 478.950012 L 701.76001 478.380005 L 700.320007 476.079987 L 697.289978 474.640015 L 696.289978 471.640015 L 693.830017 470.779999 L 691.669983 467.480011 L 687.929993 466.179993 L 685.330017 464.880005 L 683.030029 464.880005 L 679.440002 465.609985 L 679.289978 467.329987 L 680 468.190002 L 679.570007 469.200012 L 676.830017 469.059998 L 673.51001 472.209991 L 670.330017 473.940002 L 666.890015 473.940002 L 664.02002 475.100006 L 663.710022 472.649994 L 662.27002 470.940002 L 659.679993 469.929993 L 658.23999 468.630005 L 651.059998 465.190002 L 644.280029 463.600006 L 640.380005 464.179993 L 635.059998 464.609985 L 629.719971 466.480011 L 626.630005 467.019989 L 626.429993 459.869995 L 624.109985 458.140015 L 622.530029 456.559998 L 622.809998 453.829987 L 631.890015 452.679993 L 654.650024 450.089996 L 660.710022 449.529999 L 665.539978 449.769989 L 667.840027 453.220001 L 669.140015 454.5 L 676.369995 454.940002 L 686 454.359985 L 705.169983 453.209991 L 710 452.609985 L 714.559998 452.809998 L 714.940002 455.369995 L 716.940002 456.089996 L 717.140015 451.980011 L 715.789978 448.279999 L 716.960022 446.880005 L 721.900024 447.410004 L 726.530029 447.690002 Z M 737.690002 565.369995 L 739.840027 564.809998 L 741 564.609985 L 742.299988 562.51001 L 744.400024 561.070007 L 745.539978 561.5 L 747.049988 561.789978 L 747.409973 562.710022 L 744.330017 563.809998 L 740.570007 565.099976 L 738.48999 566.169983 L 737.690002 565.380005 Z M 749.719971 560.929993 L 750.799988 561.849976 L 753.25 560 L 758 556.27002 L 761.320007 552.809998 L 763.549988 546.919983 L 764.409973 545.409973 L 764.549988 542.390015 L 763.919983 542.799988 L 763.049988 545.330017 L 761.75 549.429993 L 758.880005 554.099976 L 754.97998 557.830017 L 751.960022 559.549988 L 749.72998 560.929993 Z"/>
    <text id="text4" xml:space="preserve" x="723" y="506" font-family="Arial" font-size="15.4" fill="#000000">FL</text>
    <path id="NH" fill="#d1dbdd" stroke="#000000" stroke-width="0.82" d="M 834.299988 183.929993 L 835.080017 182.969971 L 836.039978 180.049988 L 833.780029 179.219971 L 833.349976 176.5 L 829.900024 175.5 L 829.599976 173.049988 L 823.140015 152.210022 L 819.039978 139.299988 L 818.23999 139.299988 L 817.659973 140.72998 L 817.080017 140.289978 L 816.210022 139.429993 L 814.919983 141.160034 L 814.880005 145.630005 L 815.169983 150.669983 L 816.900024 153.109985 L 816.900024 156.710022 L 813.590027 161.210022 L 811.280029 162.210022 L 811.280029 163.210022 L 812.280029 164.799988 L 812.280029 172.419983 L 811.570007 180.599976 L 811.409973 184.910034 L 812.280029 186.039978 L 812.140015 190.080017 L 811.700012 191.660004 L 812.580017 192.279999 L 827.530029 188.350006 L 829.48999 187.820007 L 831.130005 185.359985 L 834.309998 183.919983 Z"/>
    <text id="text5" xml:space="preserve" x="811" y="183" font-family="Arial" font-size="10.6" fill="#000000">NH</text>
    <path id="VT" fill="#d1dbdd" stroke="#000000" stroke-width="0.82" d="M 801.950012 194.27002 L 802.22998 189.52002 L 799.659973 179.929993 L 799.080017 179.650024 L 796.48999 178.5 L 797.210022 175.900024 L 796.48999 174.039978 L 794.090027 169.940002 L 794.960022 166.469971 L 794.23999 161.869995 L 792.080017 156.119995 L 791.369995 151.73999 L 814.909973 145.76001 L 815.179993 150.660034 L 816.880005 153.099976 L 816.880005 156.700012 L 813.580017 161.200012 L 811.280029 162.200012 L 811.280029 163.200012 L 812.429993 164.549988 L 812.150024 171.73999 L 811.609985 179.969971 L 811.409973 184.900024 L 812.27002 186.049988 L 812.130005 190.119995 L 811.700012 191.619995 L 812.619995 192.27002 L 805.97998 193.600006 L 801.97998 194.25 Z"/>
    <path id="VTline" fill="#d1dbdd" stroke="#000000" stroke-width="1.02694" d="M 796.380005 130.23999 L 804.210022 156.080017 L 796.390015 130.25 Z"/>
    <text id="text6" xml:space="preserve" x="795" y="128" font-family="Arial" font-size="10.12" fill="#000000">VT</text>
    <path id="ME" fill="#d1dbdd" stroke="#000000" stroke-width="0.82" d="M 871.75 127.419983 L 873.5 129.26001 L 875.51001 132.570007 L 875.51001 134.299988 L 873.630005 138.469971 L 871.909973 139.039978 L 868.880005 141.77002 L 864.570007 146.660034 L 863.409973 146.660034 C 862.830017 146.660034 862.539978 144.789978 862.539978 144.789978 L 860.960022 144.929993 L 860.090027 146.22998 L 857.929993 147.530029 L 857.059998 148.820007 L 858.5 150.119995 L 858.070007 150.690002 L 857.630005 153.119995 L 855.909973 152.97998 L 855.909973 151.549988 L 855.619995 150.400024 L 854.320007 150.690002 L 852.73999 147.809998 L 850.859985 148.960022 L 852.01001 150.26001 L 852.280029 151.26001 L 851.570007 152.410034 L 851.849976 155.140015 L 852 156.580017 L 850.559998 158.869995 L 847.960022 159.299988 L 847.669983 161.890015 L 842.909973 164.619995 L 841.76001 165.049988 L 840.320007 163.75 L 837.580017 166.910034 L 838.440002 169.789978 L 837.159973 170.940002 L 837.01001 174.799988 L 836.01001 180.359985 L 833.830017 179.339966 L 833.400024 176.609985 L 829.940002 175.599976 L 829.659973 173.160034 L 823.190002 152.309998 L 818.97998 139.309998 L 820.25 139.210022 L 821.609985 139.559998 L 821.609985 137.27002 L 822.76001 133.27002 L 825.070007 129.109985 L 826.369995 125.51001 L 824.619995 123.359985 L 824.619995 118.070007 L 825.359985 117.200012 L 826.080017 114.75 L 825.929993 113.450012 L 825.799988 109.150024 L 827.380005 104.849976 L 829.97998 96.950012 L 831.859985 93.210022 L 833 93.210022 L 834.150024 93.349976 L 834.150024 94.349976 L 835.299988 96.369995 L 837.76001 96.950012 L 838.47998 96.22998 L 838.47998 95.359985 L 842.080017 92.780029 L 843.659973 91.200012 L 844.960022 91.339966 L 850.289978 93.5 L 852.01001 94.359985 L 860.070007 120.960022 L 865.409973 120.960022 L 866.130005 122.669983 L 866.26001 126.97998 L 868.849976 129 L 869.570007 129 L 869.719971 128.570007 L 869.280029 127.570007 L 871.73999 127.429993 Z M 853.119995 154.200012 L 854.47998 152.830017 L 855.710022 153.76001 L 856.210022 155.910034 L 854.700012 156.710022 L 853.099976 154.200012 Z M 859.090027 148.960022 L 860.669983 150.599976 C 860.669983 150.599976 861.830017 150.679993 861.830017 150.400024 C 861.830017 150.089966 862.039978 148.599976 862.039978 148.599976 L 862.859985 147.869995 L 862.119995 146.299988 L 860.340027 146.940002 L 859.099976 148.940002 Z"/>
    <text id="text7" xml:space="preserve" x="833" y="140" font-family="Arial" font-size="13.9" fill="#000000">ME</text>
    <path id="RI" fill="#d1dbdd" stroke="#000000" stroke-width="0.82" d="M 828.320007 216.350006 L 825.02002 203.059998 L 830.609985 201.419983 L 832.559998 203.130005 L 835.5 206.970001 L 837.900024 210.869995 L 835.22998 212.309998 L 834.080017 212.179993 L 833.070007 213.76001 L 830.909973 215.48999 L 828.330017 216.350006 Z"/>
    <path id="RIline" fill="#d1dbdd" stroke="#000000" stroke-width="1.02694" d="M 831.530029 209.25 L 846.890015 226.25 L 831.51001 209.25 Z"/>
    <text id="text8" xml:space="preserve" x="854" y="237" font-family="Arial" font-size="11.99" fill="#000000">RI</text>
    <path id="NY" fill="#cc3333" stroke="#000000" stroke-width="0.82" d="M 789.400024 225.100006 L 788.369995 224.25 L 786.070007 224.089996 L 784.049988 222.369995 L 782.619995 216.919983 L 779.539978 217 L 777.340027 214.600006 L 760.080017 218.5 L 721.77002 226.25 L 715.049988 227.339996 L 714.409973 221.589996 L 715.669983 220.600006 L 716.830017 219.600006 L 717.690002 218.160004 L 719.27002 217.149994 L 721.02002 215.570007 L 721.429993 214.130005 L 723.330017 211.690002 L 724.330017 210.820007 L 724.179993 209.960022 L 723.030029 207.22998 L 721.440002 207.089996 L 719.72998 201.640015 L 722.330017 200.049988 L 726.210022 198.75 L 729.809998 197.609985 L 732.679993 197.179993 L 738.299988 197.029999 L 740.049988 198.160004 L 741.48999 198.320007 L 743.340027 197.169983 L 745.659973 196.160004 L 750.280029 195.72998 L 752.130005 194.149994 L 753.719971 191.27002 L 755.159973 189.52002 L 757.039978 189.52002 L 758.76001 188.52002 L 758.900024 186.52002 L 757.609985 184.650024 L 757.320007 183.349976 L 758.320007 181.47998 L 758.320007 180.190002 L 756.75 180.190002 L 755.150024 179.469971 L 754.440002 178.469971 L 754.289978 176.169983 L 759.469971 171.27002 L 760.039978 170.559998 L 761.340027 167.960022 L 763.940002 163.940002 L 766.369995 160.660034 L 768.25 158.5 L 770.409973 156.859985 L 773.150024 155.76001 L 778.049988 154.609985 L 780.919983 154.76001 L 784.960022 153.460022 L 791.690002 151.619995 L 792.159973 156.039978 L 794.309998 161.789978 L 795.030029 166.390015 L 794.179993 169.839966 L 796.47998 173.859985 L 797.200012 175.72998 L 796.47998 178.330017 L 799.049988 179.469971 L 799.650024 179.76001 L 802.369995 189.51001 L 801.900024 194.029999 L 801.460022 203.660004 L 802.179993 208.529999 L 802.900024 211.700012 L 804.200012 218.169983 L 804.200012 225.350006 L 803.200012 227.350006 L 804.840027 229.130005 L 805.539978 230.630005 L 803.809998 232.200012 L 804.099976 233.350006 L 805.25 233.049988 L 806.549988 231.919983 L 808.580017 229.609985 L 809.580017 229.029999 L 811.02002 229.600006 L 813.039978 229.73999 L 820.099976 226.279999 L 822.669983 223.839996 L 823.840027 222.549988 L 827.580017 223.98999 L 824.559998 227.140015 L 821.099976 229.72998 L 814.76001 234.450012 L 812.460022 235.330017 L 807.27002 237.049988 L 803.669983 238.049988 L 802.630005 237.600006 L 802.429993 234.299988 L 802.830017 231.880005 L 802.700012 230.01001 L 800.200012 228.5 L 796.169983 227.619995 L 792.719971 226.619995 L 789.400024 225.039978 Z"/>
    <text id="text9" xml:space="preserve" x="767" y="200" font-family="Arial" font-size="15.4" fill="#000000">NY</text>
    <path id="PA" fill="#cc3333" stroke="#000000" stroke-width="0.82" d="M 784.700012 257.070007 L 785.869995 256.820007 L 787.950012 255.720001 L 789.01001 253.5 L 790.450012 251.5 L 793.330017 248.77002 L 793.330017 248.049988 L 791.169983 246.609985 L 788.01001 244.460022 L 787.130005 242.160004 L 784.700012 241.859985 L 784.559998 240.859985 L 783.840027 238.419983 L 785.840027 237.419983 L 785.97998 235.25 L 784.820007 234.100006 L 784.969971 232.669983 L 786.710022 229.940002 L 786.710022 227.210022 L 789.109985 224.850006 L 788.289978 224.25 L 786.049988 224.080017 L 783.98999 222.359985 L 782.619995 216.910004 L 779.5 217.01001 L 777.320007 214.609985 L 761.190002 218.330017 L 722.890015 226.089996 L 714.960022 227.380005 L 714.409973 221.580017 L 709.630005 226.089996 L 708.47998 226.5 L 704.73999 229.169983 L 707.340027 246.200012 L 709.539978 254.850006 L 712.719971 271.970001 L 715.640015 271.399994 L 726.280029 270.070007 L 760.059998 263.26001 L 773.309998 260.730011 L 780.710022 259.290009 L 780.950012 259.089996 L 782.830017 257.649994 L 784.710022 257.040009 Z"/>
    <text id="text10" xml:space="preserve" x="742" y="252" font-family="Arial" font-size="15.4" fill="#000000">PA</text>
    <path id="VA" fill="#cc3333" stroke="#000000" stroke-width="0.82" d="M 790.5 293.839996 L 790.380005 292.100006 L 796.130005 289.839996 L 795.440002 292.709991 L 792.840027 296.059998 L 792.450012 300.140015 L 792.869995 303.140015 L 791.219971 307.559998 L 789.299988 309.26001 L 787.98999 305.140015 L 788.390015 300.290009 L 789.809998 296.570007 L 790.47998 293.820007 Z M 793.47998 319 L 741.650024 330.170013 L 708.320007 334.869995 L 702.359985 334.559998 L 700.059998 336.26001 L 693.52002 336.459991 L 686.049988 337.320007 L 676.330017 338.76001 L 685.640015 333.76001 L 685.640015 331.910004 L 686.97998 330.01001 L 696.390015 319.779999 L 699.909973 323.769989 L 703.280029 324.619995 L 705.530029 323.619995 L 707.530029 322.440002 L 709.799988 323.640015 L 713.289978 322.380005 L 714.950012 318.320007 L 717.26001 318.799988 L 719.809998 316.899994 L 721.409973 317.339996 L 723.950012 314.070007 L 724.25 312.220001 L 723.390015 311.089996 L 724.289978 309.429993 L 728.98999 298.51001 L 729.530029 293.429993 L 730.640015 292.959991 L 732.590027 295.109985 L 736.090027 294.859985 L 737.809998 288.119995 L 740.299988 287.609985 L 741.219971 285.170013 L 743.530029 283.089996 L 746 278.029999 L 746.080017 273.529999 L 754.840027 276.920013 C 755.450012 277.220001 755.580017 272.420013 755.580017 272.420013 L 758.830017 273.859985 L 758.890015 276.459991 L 764.049988 277.619995 L 765.950012 278.640015 L 767.429993 280.48999 L 766.830017 283.730011 L 765.090027 286.029999 L 765.190002 287.869995 L 765.719971 289.519989 L 770.159973 290.649994 L 774.119995 290.670013 L 776.859985 291.51001 L 778.599976 291.790009 L 779.219971 294.519989 L 782.070007 294.880005 L 782.840027 295.959991 L 782.460022 300.130005 L 783.690002 301.130005 L 783.26001 302.829987 L 784.359985 303.529999 L 784.159973 304.769989 L 781.76001 304.690002 L 781.849976 306.119995 L 783.880005 307.48999 L 783.97998 308.73999 L 785.559998 310.320007 L 786.01001 312.559998 L 783.72998 313.790009 L 785.130005 315.130005 L 790.299988 313.619995 L 793.51001 318.959991 Z"/>
    <text id="text11" xml:space="preserve" x="739" y="317" font-family="Arial" font-size="15.4" fill="#000000">VA</text>
    <path id="WV" fill="#d1dbdd" stroke="#000000" stroke-width="0.82" d="M 727.73999 269.75 L 728.719971 274.149994 L 729.690002 279.51001 L 731.590027 277.209991 L 733.609985 274.480011 L 735.869995 273.950012 L 737.169983 272.649994 L 738.76001 270.350006 L 740.049988 270.929993 L 742.640015 270.640015 L 744.940002 268.769989 L 746.73999 267.480011 L 748.380005 267.049988 L 749.539978 267.950012 L 752.780029 269.570007 L 754.51001 271.160004 L 755.73999 272.309998 L 755.049988 277.23999 L 749.849976 274.980011 L 746.049988 273.540009 L 745.97998 278.140015 L 743.530029 283.070007 L 741.27002 285.230011 L 740.210022 287.670013 L 737.849976 288.109985 L 737.059998 291.309998 L 736.140015 294.809998 L 732.599976 295.109985 L 730.52002 292.959991 L 729.559998 293.440002 L 729 298.309998 L 727.789978 301.459991 L 723.369995 311.200012 L 724.169983 312.220001 L 723.98999 313.920013 L 721.48999 317.390015 L 719.869995 316.910004 L 717.23999 318.829987 L 714.97998 318.309998 L 713.200012 322.369995 C 713.200012 322.369995 710.289978 323.630005 709.700012 323.579987 C 709.549988 323.579987 707.5 322.480011 707.5 322.480011 L 705.409973 323.700012 L 703.25 324.630005 L 699.929993 323.829987 L 698.929993 322.809998 L 696.97998 320.109985 L 694.179993 318.339996 L 692.669983 315.119995 L 688.849976 312.040009 L 688.27002 310.029999 L 685.969971 308.730011 L 685.25 307.290009 L 685.030029 302.619995 L 686.97998 302.540009 L 688.700012 301.820007 L 688.849976 299.380005 L 690.280029 298.089996 L 690.429993 293.630005 L 691.289978 290.170013 L 692.450012 289.589996 L 693.580017 290.589996 L 694.02002 292.190002 L 695.599976 291.329987 L 696.039978 289.890015 L 695.01001 288.320007 L 695.01001 286.160004 L 695.880005 285.01001 L 697.900024 281.98999 L 699.049988 280.709991 L 700.919983 281.140015 L 702.950012 279.700012 L 705.679993 276.700012 L 707.679993 273.23999 L 707.969971 268.209991 L 708.409973 263.75 L 708.409973 259.579987 L 707.380005 256.850006 L 708.26001 255.570007 L 709.419983 254.419983 L 712.52002 272.040009 L 716.659973 271.380005 L 727.72998 269.779999 Z"/>
    <text id="text12" xml:space="preserve" x="696" y="304" font-family="Arial" font-size="15.4" fill="#000000">WV</text>
    <path id="OH" fill="#cc3333" stroke="#000000" stroke-width="0.82" d="M 704.700012 229.190002 L 699.26001 232.779999 L 695.809998 234.789978 L 692.780029 238.089996 L 689.179993 241.549988 L 686.309998 242.27002 L 683.710022 242.700012 L 678.809998 245 L 676.929993 245.140015 L 673.900024 242.410004 L 669.280029 242.98999 L 666.98999 241.690002 L 664.869995 240.48999 L 660.51001 241.130005 L 651.450012 242.570007 L 641.460022 244.52002 L 642.609985 257.51001 L 644.200012 269.730011 L 646.52002 290.579987 L 647.030029 294.859985 L 650.690002 294.76001 L 652.840027 294.040009 L 655.849976 295.369995 L 657.700012 299.23999 L 662.27002 299.23999 L 663.950012 301.119995 L 665.52002 301.059998 L 667.780029 299.859985 L 670.02002 300.209991 L 674.849976 300.640015 L 676.390015 298.73999 L 678.469971 297.589996 L 680.320007 296.970001 L 680.900024 299.440002 L 682.47998 300.290009 L 685.580017 302.390015 L 687.530029 302.309998 L 688.710022 301.869995 L 688.880005 299.410004 L 690.289978 298.130005 L 690.390015 293.869995 L 691.299988 290.220001 L 692.460022 289.670013 L 693.619995 290.700012 L 694.099976 292.200012 L 695.640015 291.269989 L 696.02002 289.980011 L 695.02002 288.279999 L 695.090027 286.230011 L 695.76001 285.279999 L 697.690002 282.329987 L 698.609985 280.950012 L 700.48999 281.359985 L 702.530029 279.929993 L 705.26001 276.920013 L 707.719971 273.290009 L 708.01001 268.799988 L 708.440002 264.350006 L 708.289978 259.619995 L 707.419983 257.059998 L 707.72998 256 L 709.340027 254.460022 L 707.309998 246.399994 L 704.710022 229.190002 Z"/>
    <text id="text13" xml:space="preserve" x="661" y="276" font-family="Arial" font-size="15.4" fill="#000000">OH</text>
    <path id="IN" fill="#cc3333" stroke="#000000" stroke-width="0.82" d="M 601.570007 323.970001 L 601.619995 321.429993 L 602.049988 317.410004 L 604.059998 314.839996 L 605.659973 311.390015 L 607.960022 307.649994 L 607.469971 302.880005 L 605.940002 300.029999 L 605.650024 297.160004 L 606.369995 292.269989 L 605.940002 286.109985 L 604.780029 271.859985 L 603.630005 258.209991 L 602.780029 247.809998 L 605.52002 248.589996 L 606.820007 249.440002 L 607.820007 249.140015 L 609.690002 247.440002 L 612.219971 246 L 616.76001 245.850006 L 636.340027 243.839996 L 641.309998 243.369995 L 642.640015 257.559998 L 646.419983 290.320007 L 646.960022 295.429993 L 646.630005 297.450012 L 647.719971 299.049988 L 647.820007 300.25 L 645.559998 301.700012 L 642.409973 303.059998 L 639.549988 303.559998 L 639.01001 307.890015 L 634.929993 310.839996 L 632.450012 314.390015 L 632.72998 316.51001 L 632.22998 317.859985 L 629.23999 317.859985 L 627.840027 316.420013 L 625.609985 317.549988 L 623.210022 318.890015 L 623.359985 321.589996 L 622.289978 321.839996 L 621.880005 320.940002 L 619.950012 319.600006 L 617.049988 320.790009 L 615.669983 323.459991 L 614.390015 322.73999 L 613.099976 321.320007 L 609.130005 321.75 L 604.140015 322.619995 L 601.539978 323.98999 Z"/>
    <text id="text14" xml:space="preserve" x="616" y="290" font-family="Arial" font-size="15.4" fill="#000000">IN</text>
    <path id="IL" fill="#cc3333" stroke="#000000" stroke-width="0.82" d="M 601.539978 324.309998 L 601.570007 321.429993 L 602.080017 317.309998 L 604.130005 314.709991 L 605.809998 311.109985 L 607.809998 307.549988 L 607.469971 302.880005 L 605.940002 300.029999 L 605.650024 297.160004 L 606.369995 292.269989 L 605.940002 286.109985 L 604.780029 271.859985 L 603.630005 258.209991 L 602.780029 247.809998 L 602.330017 247.149994 L 601.609985 244.850006 L 600.450012 241.549988 L 599.01001 239.970001 L 597.710022 237.660004 L 597.51001 232.779999 L 556.700012 235.089996 L 556.900024 237.190002 L 558.940002 237.809998 L 559.76001 238.809998 L 560.169983 240.460022 L 563.630005 243.5 L 564.25 245.52002 L 563.630005 248.580017 L 562.179993 251.220001 L 561.530029 253.809998 L 559.539978 255.27002 L 558.140015 255.77002 L 553.039978 257.549988 L 552.419983 259.160004 L 551.799988 260.98999 L 552.419983 262.220001 L 554.059998 263.640015 L 553.859985 267.290009 L 552.210022 268.700012 L 551.599976 270.140015 L 551.599976 272.559998 L 549.97998 272.970001 L 548.549988 274 L 548.349976 275.209991 L 548.549988 277.059998 L 547.030029 278.220001 L 546.099976 280.709991 L 546.51001 283.959991 L 548.570007 290.459991 L 555.070007 297.160004 L 559.969971 300.420013 L 559.76001 304.279999 L 560.580017 305.519989 L 566.280029 305.920013 L 568.719971 307.140015 L 568.099976 310.380005 L 566.080017 315.679993 L 565.460022 318.51001 L 567.48999 321.959991 L 573.210022 326.640015 L 577.289978 327.26001 L 579.119995 331.709991 L 580.969971 334.559998 L 580.150024 337.200012 L 581.559998 340.850006 L 583.210022 342.679993 L 584.440002 341.910004 L 585.26001 340.059998 L 587.22998 338.519989 L 589.130005 337.970001 L 591.450012 339.029999 L 594.690002 340.26001 L 595.73999 339.980011 L 595.929993 337.980011 L 594.780029 335.839996 L 595.059998 333.730011 L 596.700012 332.529999 L 599.390015 331.809998 L 600.52002 331.399994 L 599.969971 330.160004 L 599.27002 328.059998 L 600.539978 327.200012 L 601.570007 324.350006 Z"/>
    <text id="text15" xml:space="preserve" x="572" y="291" font-family="Arial" font-size="15.4" fill="#000000">IL</text>
    <path id="CT" fill="#d1dbdd" stroke="#000000" stroke-width="0.82" d="M 828.320007 216.320007 L 825.02002 203.089996 L 820.820007 203.910004 L 801.919983 208.119995 L 802.809998 211 L 804.099976 217.470001 L 804.26001 225.429993 L 803.179993 227.359985 L 804.880005 229.070007 L 808.679993 225.600006 L 811.859985 222.72998 L 813.590027 220.859985 L 814.309998 221.429993 L 816.75 220.130005 L 821.369995 219.140015 L 828.299988 216.309998 Z"/>
    <text id="text16" xml:space="preserve" x="808" y="218" font-family="Arial" font-size="10.2" fill="#000000">CT</text>
    <path id="WI" fill="#cc3333" stroke="#000000" stroke-width="0.82" d="M 597.559998 232.779999 L 597.48999 229.970001 L 596.429993 225.940002 L 595.859985 220.47998 L 594.859985 218.320007 L 595.710022 215.600006 L 596.429993 213.01001 L 597.72998 210.710022 L 597.159973 207.710022 L 596.590027 204.539978 L 597.030029 202.940002 L 598.75 200.789978 L 598.900024 198.350006 L 598.179993 197.200012 L 598.73999 194.899994 L 598.340027 191.200012 L 600.799988 186.179993 L 603.359985 180.119995 L 603.530029 178.119995 L 603.23999 177.25 L 602.52002 177.679993 L 598.780029 183.289978 L 596.320007 186.890015 L 594.599976 188.47998 L 593.890015 190.48999 L 592.140015 191.210022 L 591.140015 192.929993 L 589.849976 192.649994 L 589.710022 191.080017 L 590.859985 188.919983 L 592.72998 184.75 L 594.320007 183.309998 L 595.200012 181.22998 L 592.909973 179.530029 L 591.159973 170.330017 L 587.97998 169.130005 L 586.26001 167.080017 L 575.460022 164.640015 L 572.880005 163.73999 L 565.580017 161.820007 L 558.52002 160.789978 L 555.159973 156.22998 L 554.47998 156.72998 L 553.409973 156.580017 L 552.840027 155.580017 L 551.640015 155.830017 L 550.640015 155.969971 L 549.059998 156.830017 L 548.200012 156.25 L 548.77002 154.530029 L 550.5 151.789978 L 551.5 150.789978 L 549.780029 149.48999 L 547.909973 150.210022 L 545.309998 151.940002 L 538.700012 154.809998 L 536.109985 155.380005 L 533.51001 154.950012 L 532.650024 154.179993 L 530.76001 156.700012 L 530.559998 159.150024 L 530.559998 166.660034 L 529.530029 168.099976 L 524.849976 171.539978 L 522.820007 176.839966 L 523.22998 177.039978 L 525.460022 178.869995 L 526.080017 181.710022 L 524.429993 184.549988 L 524.429993 188 L 524.840027 193.899994 L 527.48999 196.549988 L 530.549988 196.549988 L 532.179993 199.390015 L 535.26001 199.799988 L 538.710022 204.880005 L 545.02002 208.539978 L 546.869995 210.98999 L 547.690002 217.589996 L 548.289978 220.539978 L 550.340027 221.960022 L 550.530029 223.190002 L 548.700012 226.22998 L 548.900024 229.059998 L 551.140015 232.51001 L 553.380005 233.539978 L 556.030029 233.950012 L 557.22998 235.160004 L 597.580017 232.799988 Z"/>
    <text id="text17" xml:space="preserve" x="567" y="202" font-family="Arial" font-size="15.4" fill="#000000">WI</text>
    <path id="NC" fill="#cc3333" stroke="#000000" stroke-width="0.82" d="M 793.47998 318.940002 L 795.330017 323.320007 L 798.51001 329.079987 L 800.669983 331.230011 L 801.25 333.230011 L 799.090027 333.380005 L 799.809998 333.950012 L 799.52002 337.690002 L 797.219971 338.839996 L 796.630005 340.709991 L 795.47998 343.299988 L 792.179993 344.73999 L 790.02002 344.440002 L 788.719971 344.299988 L 787.289978 343.149994 L 787.580017 344.299988 L 787.580017 345.170013 L 789.289978 345.170013 L 790.01001 346.299988 L 788.289978 351.910004 L 792.030029 351.910004 L 792.609985 353.350006 L 794.619995 351.350006 L 795.75 350.920013 L 794.039978 354.079987 L 791.289978 358.390015 L 790.140015 358.390015 L 789.140015 357.98999 L 786.690002 358.549988 L 782.070007 360.700012 L 776.320007 365.450012 L 773.289978 369.609985 L 771.570007 375.359985 L 771.140015 377.519989 L 766.960022 377.950012 L 762.099976 379.140015 L 753.23999 371.839996 L 742 365.100006 L 739.409973 364.380005 L 728.179993 365.679993 L 724.380005 366.339996 L 722.919983 363.470001 L 720.280029 361.589996 L 705.599976 362.019989 L 699.130005 362.73999 L 691.039978 366.76001 L 685.570007 369.059998 L 666.710022 371.359985 L 667.159973 367.76001 L 668.73999 366.480011 L 671.200012 365.899994 L 671.77002 362.579987 L 675.52002 360.140015 L 678.97998 358.839996 L 682.719971 355.670013 L 686.619995 353.799988 L 687.190002 351.070007 L 690.650024 347.619995 L 691.22998 347.48999 C 691.22998 347.48999 691.22998 348.48999 691.950012 348.48999 C 692.669983 348.48999 693.659973 348.790009 693.659973 348.790009 L 695.690002 345.619995 L 697.559998 345.049988 L 699.559998 345.329987 L 701.01001 342.179993 L 703.609985 339.880005 L 704.039978 338.01001 L 704.200012 334.76001 L 708 334.73999 L 714.429993 333.980011 L 728.460022 331.980011 L 741.940002 330.130005 L 761.219971 325.929993 L 779.02002 322.130005 L 788.97998 319.980011 Z M 797.280029 348.459991 L 799.590027 346.23999 L 802.409973 343.940002 L 803.77002 343.369995 L 803.919983 341.570007 L 803.340027 336.100006 L 802.039978 334.01001 L 801.469971 332.350006 L 802.119995 332.149994 L 804.549988 337.019989 L 804.909973 340.980011 L 804.77002 343.980011 L 801.75 345.359985 L 799.219971 347.519989 L 798.219971 348.600006 L 797.289978 348.440002 Z"/>
    <text id="text18" xml:space="preserve" x="747" y="354" font-family="Arial" font-size="15.4" fill="#000000">NC</text>
    <path id="MA" fill="#d1dbdd" stroke="#000000" stroke-width="0.82" d="M 851.080017 211.339996 L 853.01001 210.720001 L 853.419983 209.200012 L 854.349976 209.299988 L 855.25 211.339996 L 854.119995 211.73999 L 850.669983 211.850006 Z M 842.719971 212.059998 L 844.780029 209.710022 L 846.190002 209.710022 L 847.840027 211.029999 L 845.679993 211.950012 L 843.76001 212.850006 L 842.72998 212.039978 Z M 811.710022 192.5 L 827.440002 188.369995 L 829.469971 187.799988 L 831.169983 185.309998 L 834.5 183.839966 L 837.059998 187.76001 L 834.909973 192.359985 L 834.619995 193.660004 L 836.349976 195.960022 L 837.369995 195.22998 L 838.940002 195.22998 L 840.960022 197.529999 L 844.429993 202.839996 L 847.590027 203.279999 L 849.609985 202.410004 L 851.200012 200.839996 L 850.47998 198.399994 L 848.609985 196.960022 L 847.309998 197.679993 L 846.440002 196.529999 L 846.869995 196.100006 L 848.75 195.950012 L 850.320007 196.669983 L 852.049988 198.830017 L 852.919983 201.419983 L 853.210022 203.570007 L 849.469971 204.859985 L 846 206.600006 L 842.549988 210.600006 L 840.799988 211.910004 L 840.799988 211.049988 L 842.97998 209.75 L 843.409973 208.169983 L 842.690002 205.440002 L 840.090027 206.73999 L 839.380005 208.029999 L 839.809998 210.029999 L 837.960022 210.929993 L 835.48999 206.899994 L 832.48999 203.02002 L 830.640015 201.410004 L 824.809998 203.080017 L 820.289978 204 L 801.859985 208.100006 L 801.26001 203.850006 L 801.840027 194.450012 L 805.659973 193.649994 L 811.719971 192.5 Z"/>
    <text id="text19" xml:space="preserve" x="814" y="202" font-family="Arial" font-size="9.97" fill="#000000">MA</text>
    <path id="MO" fill="#d1dbdd" stroke="#000000" stroke-width="0.82" d="M 547.099976 277.880005 L 544.840027 275.130005 L 543.840027 273.109985 L 486.48999 275.230011 L 484.450012 275.329987 L 485.579987 277.570007 L 485.380005 279.609985 L 487.609985 283.059998 L 490.359985 286.709991 L 493.130005 289.160004 L 495.040009 289.359985 L 496.380005 290.190002 L 496.380005 292.809998 L 494.76001 294.25 L 494.339996 296.269989 L 496.170013 299.309998 L 498.429993 301.950012 L 500.660004 303.579987 L 501.890015 313.950012 L 502.160004 346.01001 L 502.359985 350.170013 L 502.779999 354.950012 L 522.75 354.179993 L 543.419983 353.570007 L 561.960022 352.869995 L 572.330017 352.670013 L 574.280029 355.700012 L 573.669983 358.649994 L 570.909973 360.790009 L 570.400024 362.429993 L 575.200012 362.839996 L 578.669983 362.220001 L 580.210022 357.339996 L 580.780029 352.119995 L 582.650024 349.859985 L 584.960022 348.529999 L 585.01001 345.809998 L 585.909973 344.100006 L 584.409973 341.839996 L 583.210022 342.720001 L 581.429993 340.73999 L 580.299988 336.51001 L 581 334.279999 L 579.27002 331.230011 L 577.630005 327.170013 L 573.359985 326.450012 L 567.159973 321.480011 L 565.609985 317.820007 L 566.330017 314.980011 L 568.179993 309.589996 L 568.590027 307.029999 L 566.849976 306.130005 L 560.73999 305.399994 L 559.809998 303.899994 L 559.710022 300.130005 L 554.830017 297.079987 L 548.619995 290.200012 L 546.559998 283.670013 L 546.359985 279.929993 L 547.080017 277.890015 Z"/>
    <text id="text20" xml:space="preserve" x="520" y="324" font-family="Arial" font-size="15.4" fill="#000000">MO</text>
    <path id="GA" fill="#d1dbdd" stroke="#000000" stroke-width="0.82" d="M 648.5 373.350006 L 648.530029 375.320007 L 648.669983 377.190002 L 649.26001 380.209991 L 652.280029 387.25 L 654.429993 396.01001 L 655.72998 401.470001 L 657.179993 405.790009 L 658.469971 411.970001 L 660.359985 417.559998 L 662.659973 420.579987 L 663.090027 423.589996 L 664.820007 424.309998 L 664.960022 426.179993 L 663.380005 430.5 L 662.950012 433.369995 L 662.799988 435.100006 L 664.23999 438.970001 L 664.530029 443.690002 L 663.809998 445.850006 L 664.380005 446.570007 L 665.679993 447.290009 L 665.539978 449.769989 L 667.840027 453.220001 L 669.140015 454.5 L 676.369995 454.940002 L 695.419983 453.98999 L 705.549988 453.440002 L 710 452.619995 L 714.559998 452.799988 L 714.940002 455.369995 L 716.940002 456.089996 L 717.140015 451.980011 L 715.789978 448.279999 L 716.960022 446.880005 L 721.900024 447.410004 L 726.590027 447.869995 L 725.890015 442.269989 L 727.909973 433.369995 L 729.22998 429.630005 L 728.789978 427.329987 L 731.77002 421.790009 L 731.309998 420.589996 L 729.609985 421.200012 L 727.309998 420.049988 L 726.72998 418.179993 L 725.580017 415.019989 L 723.570007 413.149994 L 721.26001 412.579987 L 719.820007 408.26001 L 717.219971 402.630005 L 713.469971 400.910004 L 711.599976 399.179993 L 710.450012 396.880005 L 708.580017 395.160004 L 706.559998 394.01001 L 704.539978 391.420013 L 701.799988 389.410004 L 697.77002 387.829987 L 697.340027 386.540009 L 695.179993 383.950012 L 694.73999 382.660004 L 691.710022 378.25 L 688.570007 378.329987 L 685.210022 376.230011 L 683.950012 375.100006 L 683.659973 373.51001 L 684.440002 371.790009 L 686.419983 370.799988 L 685.869995 368.950012 L 648.5 373.149994 Z"/>
    <text id="text21" xml:space="preserve" x="677" y="423" font-family="Arial" font-size="15.4" fill="#000000">GA</text>
    <path id="SC" fill="#d1dbdd" stroke="#000000" stroke-width="0.82" d="M 731.099976 420.149994 L 729.5 421.019989 L 727.200012 419.869995 L 726.619995 418 L 725.469971 414.829987 L 723.450012 412.970001 L 721.130005 412.390015 L 719.700012 408.079987 L 717.22998 402.76001 L 713.5 401.040009 L 711.630005 399.320007 L 710.47998 397.019989 L 708.619995 395.290009 L 706.599976 394.140015 L 704.580017 391.549988 L 701.859985 389.549988 L 697.820007 387.970001 L 697.390015 386.690002 L 695.22998 384.089996 L 694.789978 382.799988 L 691.77002 378.209991 L 688.73999 378.359985 L 685.150024 376.200012 L 684 375.049988 L 683.710022 373.470001 L 684.429993 371.73999 L 686.440002 370.880005 L 685.98999 368.850006 L 691.130005 366.769989 L 699.22998 362.690002 L 706.179993 361.970001 L 720.539978 361.600006 L 722.880005 363.26001 L 724.380005 366.23999 L 728.210022 365.709991 L 739.450012 364.410004 L 742.049988 365.130005 L 753.289978 371.890015 L 762.289978 379.109985 L 757.469971 383.950012 L 755.150024 389.399994 L 754.710022 395.01001 L 753.280029 395.730011 L 752.27002 398.179993 L 750.109985 398.75 L 748.22998 401.940002 L 745.789978 404.359985 L 743.780029 407.380005 L 742.340027 408.100006 L 739.159973 411.119995 L 736.590027 411.26001 L 737.440002 414.140015 L 732.960022 419.019989 L 731.090027 420.170013 Z"/>
    <text id="text22" xml:space="preserve" x="712" y="392" font-family="Arial" font-size="15.4" fill="#000000">SC</text>
    <path id="KY" fill="#cc3333" stroke="#000000" stroke-width="0.82" d="M 696.380005 319.809998 L 694.330017 321.929993 L 691.150024 325.48999 L 686.76001 330.350006 L 685.679993 331.890015 L 685.630005 333.73999 L 681.72998 335.670013 L 676.700012 338.690002 L 670.25 340.290009 L 624.039978 344.640015 L 609.98999 346.230011 L 605.859985 346.679993 L 602.419983 346.660004 L 602.219971 350.399994 L 594.919983 350.529999 L 588.72998 351.100006 L 581.609985 351.059998 L 582.690002 349.890015 L 584.919983 348.519989 L 585.119995 345.670013 L 585.919983 344.059998 L 584.48999 341.799988 L 585.210022 340.100006 L 587.22998 338.519989 L 589.099976 337.950012 L 591.559998 339.100006 L 594.719971 340.25 L 595.719971 339.959991 L 595.869995 337.950012 L 594.719971 335.790009 L 595 333.790009 L 596.72998 332.48999 L 599.039978 331.920013 L 600.47998 331.359985 L 599.76001 329.769989 L 599.179993 328.059998 L 600.52002 327.179993 C 600.52002 327.130005 601.619995 324.040009 601.619995 323.920013 L 604.340027 322.609985 L 609.080017 321.73999 L 613.080017 321.309998 L 614.320007 322.75 L 615.690002 323.529999 L 617.099976 320.76001 L 619.940002 319.630005 L 621.919983 320.959991 L 622.280029 321.839996 L 623.330017 321.600006 L 623.179993 318.980011 L 625.97998 317.410004 L 627.880005 316.450012 L 629.25 317.929993 L 632.210022 317.890015 L 632.719971 316.48999 L 632.419983 314.48999 L 634.719971 310.929993 L 638.969971 307.880005 L 639.580017 303.570007 L 642.200012 303.160004 L 645.570007 301.700012 L 647.75 300.179993 L 647.559998 298.790009 L 646.539978 297.48999 L 647.049988 294.829987 L 650.789978 294.730011 L 652.840027 294.059998 L 655.820007 295.329987 L 657.650024 299.200012 L 662.219971 299.200012 L 664.039978 301.170013 L 665.469971 301.029999 L 667.789978 299.899994 L 672.460022 300.410004 L 674.76001 300.600006 L 676.26001 298.769989 L 678.599976 297.5 L 680.27002 296.880005 L 680.849976 299.380005 L 682.669983 300.329987 L 685.039978 302.179993 L 685.140015 307.209991 L 685.859985 308.630005 L 688.159973 310 L 688.859985 312.059998 L 692.559998 315.100006 L 694.179993 318.320007 L 696.359985 319.799988 Z"/>
    <text id="text23" xml:space="preserve" x="643" y="330" font-family="Arial" font-size="15.4" fill="#000000">KY</text>
    <path id="AL" fill="#d1dbdd" stroke="#000000" stroke-width="0.82" d="M 612.02002 466.609985 L 610.690002 453.880005 L 608.23999 437.200012 L 608.390015 424.700012 L 609.099976 397.100006 L 608.960022 382.309998 L 609.099976 376.609985 L 648.559998 373.369995 L 648.609985 375.339996 L 648.77002 377.209991 L 649.340027 380.230011 L 652.380005 387.269989 L 654.539978 396.029999 L 655.840027 401.5 L 657.27002 405.799988 L 658.570007 411.970001 L 660.419983 417.589996 L 662.72998 420.609985 L 663.159973 423.630005 L 664.909973 424.339996 L 665.039978 426.209991 L 663.460022 430.529999 L 663.02002 433.399994 L 662.880005 435.119995 L 664.309998 439.019989 L 664.609985 443.73999 L 663.880005 445.899994 L 664.460022 446.619995 L 665.76001 447.339996 L 666.039978 449.899994 L 661.059998 449.600006 L 655 450.170013 L 632.25 452.76001 L 622.969971 454.01001 L 622.77002 456.579987 L 624.349976 458.149994 L 626.650024 459.880005 L 627.169983 466.940002 L 622.23999 469.220001 L 619.77002 468.929993 L 622.23999 467.209991 L 622.23999 466.359985 L 619.5 461.049988 L 617.47998 460.470001 L 616.190002 464.350006 L 615.039978 466.799988 L 614.469971 466.649994 L 612.02002 466.649994 Z"/>
    <text id="text24" xml:space="preserve" x="622" y="423" font-family="Arial" font-size="15.4" fill="#000000">AL</text>
    <path id="LA" fill="#d1dbdd" stroke="#000000" stroke-width="0.82" d="M 591.22998 465.480011 L 588.299988 462.670013 L 589.200012 457.779999 L 588.599976 456.980011 L 580.349976 457.880005 L 558.070007 458.299988 L 557.450012 456.160004 L 558.27002 448.640015 L 561.210022 443.350006 L 565.700012 435.630005 L 565.179993 433.5 L 566.309998 432.890015 L 566.719971 431.160004 L 564.669983 429.339996 L 564.570007 427.609985 L 562.940002 423.73999 L 562.799988 418.109985 L 513.369995 418.929993 L 513.400024 427.429993 L 514.02002 435.769989 L 514.640015 439.220001 L 516.869995 442.880005 L 517.690002 447.350006 L 521.549988 452.230011 L 521.75 455.070007 L 522.369995 455.690002 L 521.75 463.190002 L 519.080017 467.670013 L 520.52002 469.5 L 519.900024 471.73999 L 519.289978 478.23999 L 518.080017 481.079987 L 518.179993 484.299988 L 522.359985 482.940002 L 533.140015 483.140015 L 542.359985 486.299988 L 548.109985 487.299988 L 551.440002 486.01001 L 554.320007 487.01001 L 557.190002 487.869995 L 557.909973 486.019989 L 555.039978 485 L 552.73999 485.440002 L 550.27002 484 C 550.27002 484 550.429993 482.850006 551.01001 482.700012 C 551.590027 482.559998 553.73999 481.839996 553.73999 481.839996 L 555.320007 483.140015 L 556.919983 482.26001 L 559.789978 482.839996 L 561.090027 485 L 561.390015 487.019989 L 565.419983 487.309998 L 567 488.890015 L 566.280029 490.329987 L 565.130005 491.040009 L 566.570007 492.480011 L 574.070007 495.630005 L 577.22998 494.480011 L 578.090027 492.329987 L 580.400024 491.75 L 582 490.450012 L 583.140015 491.309998 L 583.859985 493.899994 L 581.849976 494.619995 L 582.440002 495.179993 L 585.460022 494.029999 L 587.47998 491.01001 L 588.200012 490.570007 L 586.330017 490.279999 L 587.049988 488.850006 L 586.900024 487.549988 L 588.77002 487.109985 L 589.77002 485.980011 L 590.349976 486.700012 C 590.349976 486.700012 590.210022 489.420013 590.940002 489.420013 C 591.659973 489.420013 594.679993 490 594.679993 490 L 598.280029 491.73999 L 599.130005 493.029999 L 601.72998 493.029999 L 602.72998 493.890015 L 604.75 491.149994 L 604.75 489.850006 L 603.619995 489.850006 L 600.580017 487.410004 L 595.400024 486.690002 L 592.52002 484.670013 L 593.52002 482.220001 L 595.52002 482.51001 L 595.669983 481.940002 L 594.090027 481.070007 L 594.090027 480.640015 L 596.969971 480.640015 L 598.559998 477.920013 L 597.409973 476.200012 L 597.119995 473.76001 L 595.820007 473.899994 L 594.099976 475.769989 L 593.530029 478.070007 L 590.789978 477.470001 L 589.929993 475.910004 L 591.530029 474.179993 L 593.22998 471.100006 L 592.280029 468.980011 L 591.26001 465.429993 Z"/>
    <text id="text25" xml:space="preserve" x="528" y="459" font-family="Arial" font-size="15.4" fill="#000000">LA</text>
    <path id="MS" fill="#d1dbdd" stroke="#000000" stroke-width="0.82" d="M 612.25 465.649994 L 612.01001 466.779999 L 607.409973 466.779999 L 606.099976 466.059998 L 604.22998 465.76001 L 598.169983 467.5 L 596.599976 466.779999 L 594.289978 470.5 L 593.309998 471.200012 L 592.309998 468.980011 L 591.280029 465.519989 L 588.219971 462.679993 L 589.23999 457.75 L 588.630005 456.929993 L 586.97998 457.130005 L 579.940002 457.920013 L 558.070007 458.23999 L 557.390015 456.269989 L 558.169983 448.829987 L 560.940002 443.790009 L 565.599976 435.649994 L 565.200012 433.48999 L 566.299988 432.910004 L 566.700012 431.209991 L 564.640015 429.359985 L 564.539978 427.450012 L 562.890015 423.790009 L 562.789978 418.48999 L 563.98999 416.290009 L 563.780029 413.230011 L 562.200012 410.48999 L 563.539978 409.179993 L 562.150024 406.959991 L 562.559998 405.48999 L 563.960022 399.679993 L 566.190002 397.859985 L 565.609985 395.76001 L 568.900024 391.029999 L 571.400024 389.829987 L 571.200012 388.350006 L 570.950012 386.869995 L 573.52002 381.920013 L 575.609985 380.820007 L 575.73999 380.029999 L 609.01001 376.579987 L 609.179993 382.170013 L 609.320007 396.959991 L 608.599976 424.559998 L 608.460022 437.059998 L 610.919983 453.730011 L 612.219971 465.630005 Z"/>
    <text id="text26" xml:space="preserve" x="574" y="426" font-family="Arial" font-size="15.4" fill="#000000">MS</text>
    <path id="IA" fill="#d1dbdd" stroke="#000000" stroke-width="0.82" d="M 556.669983 234.72998 L 556.909973 237.220001 L 558.900024 237.720001 L 559.75 238.820007 L 560.200012 240.460022 L 563.599976 243.460022 L 564.200012 245.589996 L 563.599976 248.619995 L 562.179993 251.5 L 561.469971 253.929993 L 559.530029 255.369995 L 558.01001 255.869995 L 553.039978 257.51001 L 551.809998 260.940002 L 552.450012 262.170013 L 554.090027 263.660004 L 553.830017 267.26001 L 552.26001 268.609985 L 551.580017 270.070007 L 551.679993 272.529999 L 550.01001 272.940002 L 548.580017 273.920013 L 548.309998 275.119995 L 548.570007 277 L 547.179993 278 L 544.97998 275.220001 L 543.849976 273.040009 L 485.290009 275.269989 L 484.470001 275.429993 L 482.640015 271.429993 L 482.440002 265.519989 L 481.01001 261.859985 L 480.399994 257.179993 L 478.339996 253.929993 L 477.519989 249.660004 L 475.089996 242.960022 L 474.059998 238.190002 L 472.859985 236.26001 L 471.410004 233.830017 L 473.160004 229.51001 L 474.390015 224.450012 L 471.950012 222.600006 L 471.540009 220.179993 L 472.359985 217.950012 L 473.880005 217.950012 L 547.51001 216.820007 L 548.27002 220.549988 L 550.27002 221.929993 L 550.48999 223.210022 L 548.679993 226.210022 L 548.849976 229.070007 L 551.090027 232.440002 L 553.349976 233.589996 L 556.080017 234.039978 L 556.679993 234.76001 Z"/>
    <text id="text27" xml:space="preserve" x="507" y="252" font-family="Arial" font-size="15.4" fill="#000000">IA</text>
    <path id="MN" fill="#d1dbdd" stroke="#000000" stroke-width="0.82" d="M 472.959991 171.839966 L 472.559998 164.320007 L 470.929993 157.820007 L 469.290009 145.839966 L 468.880005 137.109985 L 467.25 134.049988 L 465.820007 129.580017 L 465.820007 120.440002 L 466.429993 116.97998 L 464.809998 112.130005 L 491.660004 112.179993 L 491.940002 104.839966 L 492.519989 104.700012 L 494.519989 105.130005 L 496.23999 105.849976 L 496.959991 110.73999 L 498.26001 116.200012 L 499.709991 117.640015 L 504.01001 117.640015 L 504.329987 118.940002 L 509.929993 119.219971 L 509.929993 121.089966 L 514.25 121.089966 L 514.549988 119.940002 L 515.549988 118.940002 L 517.559998 118.359985 L 518.710022 119.219971 L 521.309998 119.219971 L 524.77002 121.52002 L 529.52002 123.679993 L 531.669983 124.080017 L 532.119995 123.25 L 533.409973 122.809998 L 533.840027 125.380005 L 536.150024 126.539978 L 536.580017 126.109985 L 537.72998 126.27002 L 537.72998 128.130005 L 540.030029 129 L 542.830017 129 L 544.26001 128.280029 L 547.140015 125.400024 L 549.450012 125 L 550.169983 126.559998 L 550.599976 127.710022 L 551.460022 127.710022 L 552.320007 126.98999 L 560.23999 126.710022 L 561.820007 129.440002 L 562.390015 129.440002 L 563.030029 128.469971 L 566.97998 128.130005 L 566.440002 130.169983 L 562.919983 131.809998 L 554.679993 135.410034 L 550.429993 137.190002 L 547.700012 139.48999 L 545.549988 142.640015 L 543.52002 146.099976 L 541.940002 146.809998 L 537.909973 151.27002 L 536.780029 151.410034 L 532.909973 153.880005 L 530.710022 156.710022 L 530.51001 159.559998 L 530.599976 166.710022 L 529.359985 168.210022 L 524.840027 171.530029 L 522.849976 176.849976 L 525.419983 178.849976 L 526.02002 181.719971 L 524.369995 184.599976 L 524.52002 187.919983 L 524.840027 193.899994 L 527.539978 196.570007 L 530.52002 196.570007 L 532.210022 199.339996 L 535.210022 199.799988 L 538.659973 204.839996 L 544.969971 208.5 L 546.880005 211.070007 L 547.47998 216.77002 L 475.130005 217.809998 L 474.829987 186.070007 L 474.410004 183.450012 L 470.76001 180.400024 L 469.730011 178.77002 L 469.730011 177.330017 L 471.559998 175.919983 L 472.790009 174.690002 L 472.98999 171.849976 Z"/>
    <text id="text28" xml:space="preserve" x="487" y="181" font-family="Arial" font-size="15.4" fill="#000000">MN</text>
    <path id="OK" fill="#d1dbdd" stroke="#000000" stroke-width="0.82" d="M 388.420013 342.5 L 373.559998 341.380005 L 372.76001 351.109985 L 391 352.140015 L 419.549988 353.299988 L 417.480011 375.01001 L 417.070007 390.859985 L 417.269989 392.290009 L 421.140015 395.529999 L 422.98999 396.559998 L 423.609985 396.350006 L 424.220001 394.519989 L 425.440002 396.140015 L 427.26001 396.140015 L 427.26001 394.910004 L 429.709991 396.140015 L 429.299988 399.600006 L 432.970001 399.799988 L 435.209991 400.829987 L 438.880005 401.429993 L 441.119995 403.070007 L 443.170013 401.220001 L 446.209991 401.829987 L 448.470001 404.880005 L 449.290009 404.880005 L 449.290009 406.910004 L 451.320007 407.519989 L 453.350006 405.470001 L 454.98999 406.089996 L 457.220001 406.089996 L 458.040009 408.320007 L 463.640015 410.170013 L 464.880005 409.559998 L 466.5 405.910004 L 467.529999 405.910004 L 468.529999 407.73999 L 472.200012 408.350006 L 475.48999 409.570007 L 478.130005 410.390015 L 479.75 409.570007 L 480.369995 407.329987 L 484.23999 407.329987 L 486.070007 408.149994 L 488.51001 406.299988 L 489.540009 406.299988 L 490.149994 407.73999 L 493.809998 407.73999 L 495.25 405.910004 L 496.859985 406.320007 L 498.709991 408.549988 L 501.559998 410.170013 L 504.410004 410.98999 L 506.149994 411.980011 L 505.790009 378.910004 L 504.559998 369.160004 L 504.429993 361.269989 L 503.149994 355.459991 L 502.450012 349.070007 L 502.399994 345.679993 L 491.570007 345.970001 L 450.220001 345.559998 L 410.079987 343.730011 L 388.440002 342.5 Z"/>
    <text id="text29" xml:space="preserve" x="460" y="380" font-family="Arial" font-size="15.4" fill="#000000">OK</text>
    <path id="TX" fill="#d1dbdd" stroke="#000000" stroke-width="0.82" d="M 371.600006 351.190002 L 391.820007 352.140015 L 419.519989 353.170013 L 417.440002 374.01001 L 417.170013 390.140015 L 417.230011 391.98999 L 421.100006 395.390015 L 422.869995 396.679993 L 423.920013 396.179993 L 424.25 394.559998 L 425.269989 396.160004 L 427.149994 396.209991 L 427.149994 394.929993 L 428.630005 395.790009 L 429.660004 396.140015 L 429.350006 399.670013 L 432.980011 399.769989 L 435.579987 400.829987 L 439.109985 401.299988 L 441.230011 403.149994 L 443.130005 401.299988 L 446.450012 401.829987 L 448.429993 404.709991 L 449.380005 404.98999 L 449.25 406.730011 L 451.220001 407.429993 L 453.279999 405.600006 L 455.179993 406.149994 L 457.170013 406.179993 L 457.98999 408.329987 L 463.640015 410.230011 L 465.040009 409.549988 L 466.380005 405.829987 L 466.679993 405.829987 L 467.48999 405.899994 L 468.579987 407.730011 L 472.089996 408.329987 L 475.070007 409.320007 L 478.119995 410.380005 L 479.76001 409.519989 L 480.380005 407.279999 L 484.350006 407.320007 L 485.959991 408.140015 L 488.459991 406.269989 L 489.450012 406.309998 L 490.200012 407.75 L 493.809998 407.75 L 495.170013 405.950012 L 496.829987 406.299988 L 498.579987 408.429993 L 501.700012 410.23999 L 504.23999 410.959991 L 505.600006 411.679993 L 507.779999 413.450012 L 510.480011 412.269989 L 512.880005 413.290009 L 513.390015 418.720001 L 513.349976 427.339996 L 513.969971 435.820007 L 514.590027 439.019989 L 516.97998 442.950012 L 517.780029 447.350006 L 521.549988 452.279999 L 521.719971 455.070007 L 522.390015 455.769989 L 521.72998 463.209991 L 519.169983 467.679993 L 520.530029 469.589996 L 519.969971 471.690002 L 519.369995 478.26001 L 518.039978 481.23999 L 518.289978 484.339996 L 513.23999 485.76001 L 504.459991 489.779999 L 503.589996 491.51001 L 501.290009 493.220001 L 499.420013 494.519989 L 498.269989 495.23999 L 493.23999 499.98999 L 490.769989 501.839996 L 486.019989 504.709991 L 480.959991 506.869995 L 475.350006 509.899994 L 473.769989 511.200012 L 468.589996 514.359985 L 465.570007 514.929993 L 462.109985 519.820007 L 458.51001 520.109985 L 457.649994 521.830017 L 459.670013 523.559998 L 458.369995 528.450012 L 457.220001 532.469971 L 456.220001 535.909973 L 455.5 539.940002 L 456.209991 542.090027 L 457.799988 548.25 L 458.670013 553.72998 L 460.25 556.169983 L 459.380005 557.469971 L 456.640015 559.190002 L 451.600006 555.75 L 446.700012 554.719971 L 445.540009 555.169983 L 442.670013 554.590027 L 438.920013 551.859985 L 434.299988 550.859985 L 427.540009 547.840027 L 425.670013 544.380005 L 424.51001 538.630005 L 421.640015 536.909973 L 421.059998 534.909973 L 421.640015 534.330017 L 421.920013 531.309998 L 420.769989 530.73999 L 420.200012 529.869995 L 421.350006 525.98999 L 419.910004 523.97998 L 417.040009 522.830017 L 414.01001 518.950012 L 410.820007 513.059998 L 407.089996 510.76001 L 407.230011 509.019989 L 402.480011 498.100006 L 401.769989 494.359985 L 400.170013 492.640015 L 400.029999 491.350006 L 394.690002 486.609985 L 392.399994 483.880005 L 392.399994 482.869995 L 390.089996 481 L 384.029999 480 L 377.420013 479.420013 L 374.690002 477.410004 L 370.649994 478.98999 L 367.470001 480.290009 L 365.470001 483.160004 L 364.600006 486.459991 L 360.700012 491.929993 L 358.540009 494.079987 L 356.23999 493.209991 L 354.660004 492.220001 L 352.929993 491.649994 L 349.470001 489.640015 L 349.470001 489.059998 L 347.890015 487.339996 L 343.269989 485.470001 L 336.649994 478.570007 L 334.619995 474.399994 L 334.619995 467.200012 L 331.75 461.459991 L 331.320007 459.019989 L 329.880005 458.170013 L 328.850006 456.299988 L 324.410004 454.429993 L 323.25 453 L 316.910004 445.959991 L 315.76001 443.089996 L 311.589996 441.070007 L 310.290009 437.190002 L 307.98999 434.600006 L 306.25 434.170013 L 305.690002 430.01001 L 312.799988 430.630005 L 338.679993 433.059998 L 364.540009 434.5 L 366.540009 417.190002 L 370 367.790009 L 371.440002 351.130005 L 372.649994 351.160004 M 460.890015 555.320007 L 460.369995 548.98999 L 457.940002 542.609985 L 457.429993 536.340027 L 458.799988 529.039978 L 461.73999 522.919983 L 464.839996 518.119995 L 467.640015 514.950012 L 468.230011 515.150024 L 463.98999 521.059998 L 460.089996 526.869995 L 458.290009 532.77002 L 458.01001 537.359985 L 458.809998 542.820007 L 461.089996 549.210022 L 461.519989 553.809998 L 461.670013 555.109985 L 460.869995 555.309998 Z"/>
    <text id="text30" xml:space="preserve" x="425" y="457" font-family="Arial" font-size="15.4" fill="#000000">TX</text>
    <path id="NM" fill="#d1dbdd" stroke="#000000" stroke-width="0.82" d="M 306.279999 434.23999 L 305.579987 430.040009 L 313.279999 430.48999 L 340.170013 433.100006 L 364.470001 434.600006 L 366.440002 417.970001 L 369.880005 368.299988 L 371.420013 351.070007 L 372.820007 351.170013 L 373.540009 341.25 L 280.880005 331.809998 L 265.299988 438.859985 L 279.059998 440.619995 L 280.220001 431.720001 L 306.26001 434.230011 Z"/>
    <text id="text31" xml:space="preserve" x="315" y="395" font-family="Arial" font-size="15.4" fill="#000000">NM</text>
    <path id="KS" fill="#d1dbdd" stroke="#000000" stroke-width="0.82" d="M 502.059998 345.670013 L 490.799988 345.859985 L 449.73999 345.440002 L 410.040009 343.630005 L 388.100006 342.5 L 391.570007 285.100006 L 411.25 285.700012 L 447.149994 286.429993 L 486.619995 287.320007 L 491.160004 287.320007 L 493.109985 289.23999 L 494.910004 289.220001 L 496.369995 290.119995 L 496.309998 292.790009 L 494.660004 294.329987 L 494.380005 296.320007 L 496.019989 299.339996 L 498.649994 302.179993 L 500.720001 303.619995 L 501.880005 313.609985 L 502.049988 345.679993 Z"/>
    <text id="text32" xml:space="preserve" x="440" y="321" font-family="Arial" font-size="15.4" fill="#000000">KS</text>
    <path id="WY" fill="#d1dbdd" stroke="#000000" stroke-width="0.82" d="M 370.640015 184.690002 L 275.540009 172.719971 L 262.970001 251.359985 L 363.880005 263.420013 L 370.619995 184.679993 Z"/>
    <text id="text33" xml:space="preserve" x="311" y="224" font-family="Arial" font-size="15.4" fill="#000000">WY</text>
    <path id="MT" fill="#d1dbdd" stroke="#000000" stroke-width="0.82" d="M 378.5 107.969971 L 351.179993 105.469971 L 325.089996 102.309998 L 299.029999 98.710022 L 270.209991 94 L 253.809998 90.969971 L 224.639999 84.809998 L 220.649994 103.789978 L 223.699997 110.48999 L 222.470001 114.559998 L 224.119995 118.619995 L 226.970001 119.859985 L 231.070007 129.410034 L 233.479996 132.23999 L 233.889999 133.27002 L 236.949997 134.27002 L 237.360001 136.099976 L 231.039993 151.75 L 231.039993 153.98999 L 233.279999 156.839966 L 234.100006 156.839966 L 238.369995 154.190002 L 238.990005 153.160034 L 240.399994 153.780029 L 240.199997 158.460022 L 242.639999 169.660034 L 245.289993 171.880005 L 246.110001 172.5 L 247.740005 174.52002 L 247.320007 177.570007 L 247.940002 180.630005 L 248.970001 181.450012 L 250.990005 179.400024 L 253.429993 179.400024 L 256.309998 180.839966 L 258.540009 180.01001 L 262.200012 180.01001 L 265.470001 181.450012 L 267.910004 181.049988 L 268.329987 178.390015 L 270.959991 177.780029 L 272.200012 179.01001 L 272.600006 181.849976 L 273.869995 182.589966 L 275.540009 172.77002 L 370.640015 184.710022 L 378.5 108 Z"/>
    <text id="text34" xml:space="preserve" x="303" y="147" font-family="Arial" font-size="15.4" fill="#000000">MT</text>
    <path id="CO" fill="#cc3333" stroke="#000000" stroke-width="0.82" d="M 388.140015 342.640015 L 392.51001 265.899994 L 291.480011 254.660004 L 280.600006 332.839996 L 388.140015 342.649994 Z"/>
    <text id="text35" xml:space="preserve" x="336" y="307" font-family="Arial" font-size="15.4" fill="#000000">CO</text>
    <path id="UT" fill="#d1dbdd" stroke="#000000" stroke-width="0.82" d="M 280.75 332.98999 L 206.130005 322.429993 L 224.479996 222.390015 L 266.149994 230.160004 L 264.829987 239.609985 L 262.779999 251.309998 L 269.720001 252.140015 L 284.350006 253.73999 L 291.649994 254.51001 Z"/>
    <text id="text36" xml:space="preserve" x="236" y="295" font-family="Arial" font-size="15.4" fill="#000000">UT</text>
    <path id="AZ" fill="#d1dbdd" stroke="#000000" stroke-width="0.82" d="M 178.649994 397.450012 L 176.309998 399.369995 L 176.020004 400.670013 L 176.460007 401.529999 L 193.300003 411 L 204.110001 417.75 L 217.210007 425.369995 L 232.210007 434.290009 L 243.139999 436.440002 L 265.380005 438.839996 L 280.75 332.940002 L 206.149994 322.339996 L 203.389999 336.940002 L 201.949997 336.950012 L 200.429993 339.290009 L 198.179993 339.190002 L 197.050003 336.76001 L 194.610001 336.450012 L 193.789993 335.420013 L 192.990005 335.420013 L 192.169998 335.940002 L 190.440002 336.859985 L 190.339996 343.059998 L 190.139999 344.559998 L 189.619995 355.76001 L 188.289993 357.679993 L 187.789993 360.619995 L 190.229996 365 L 191.360001 370.179993 L 192.059998 371.109985 L 192.979996 371.619995 L 192.880005 373.640015 L 191.440002 374.880005 L 188.389999 376.399994 L 186.660004 378.119995 L 185.330002 381.369995 L 184.809998 385.730011 L 182.279999 388.170013 L 180.449997 388.779999 L 180.570007 389.519989 L 180.169998 391.040009 L 180.570007 391.76001 L 183.830002 392.269989 L 183.320007 394.700012 L 181.979996 396.630005 L 178.630005 397.450012 Z"/>
    <text id="text37" xml:space="preserve" x="226" y="391" font-family="Arial" font-size="15.4" fill="#000000">AZ</text>
    <path id="NV" fill="#cc3333" stroke="#000000" stroke-width="0.82" d="M 224.529999 222.279999 L 203.470001 336.779999 L 201.830002 337.119995 L 200.429993 339.25 L 198.309998 339.25 L 197.009995 336.820007 L 194.669998 336.48999 L 193.990005 335.51001 L 193.059998 335.459991 L 190.600006 336.920013 L 190.320007 342.959991 L 189.990005 348.089996 L 189.690002 355.720001 L 188.389999 357.589996 L 186.240005 356.640015 L 124.68 264 L 141.600006 203.919983 L 224.550003 222.279999 Z"/>
    <text id="text38" xml:space="preserve" x="163" y="276" font-family="Arial" font-size="15.4" fill="#000000">NV</text>
    <path id="OR" fill="#d1dbdd" stroke="#000000" stroke-width="0.82" d="M 182.059998 213.369995 L 189.940002 182.429993 L 190.860001 178.660034 L 192.960007 173.660034 L 192.419998 172.640015 L 190.169998 172.589966 L 189.039993 171.089966 L 189.440002 169.789978 L 189.889999 166.919983 L 193.850006 162.030029 L 195.470001 161.059998 L 196.5 160.030029 L 197.820007 156.869995 L 201.410004 151.820007 L 204.589996 148.390015 L 204.789993 145.299988 L 201.889999 143.130005 L 200.300003 139 L 189 135.780029 L 175.570007 132.630005 L 161.809998 132.72998 L 161.419998 131.5 L 156.529999 133.349976 L 152.559998 132.839966 L 150.399994 131.419983 L 149.270004 132.039978 L 145.110001 131.839966 L 143.570007 130.599976 L 138.899994 128.77002 L 138.179993 128.869995 L 134.320007 127.559998 L 132.570007 129.179993 L 127.080002 128.880005 L 121.779999 125.219971 L 122.400002 124.5 L 122.599998 117.599976 L 120.550003 114.140015 L 116.889999 113.619995 L 116.279999 111.380005 L 114.18 110.97998 L 109.019997 112.799988 L 107.019997 118.549988 L 104.139999 127.450012 L 101.239998 133.210022 L 96.790001 145.710022 L 91 157.789978 L 83.800003 168.98999 L 82.07 171.589966 L 81.349998 179.200012 L 81.690002 189.950012 L 182.020004 213.359985 Z"/>
    <text id="text39" xml:space="preserve" x="135" y="176" font-family="Arial" font-size="15.4" fill="#000000">OR</text>
    <path id="WA" fill="#d1dbdd" stroke="#000000" stroke-width="0.82" d="M 140.5 64.099976 L 144.369995 65.390015 L 153.020004 67.830017 L 160.649994 69.559998 L 178.520004 74.589966 L 198.960007 79.619995 L 212.529999 82.469971 L 200.380005 138.98999 L 189.289993 135.859985 L 175.479996 132.669983 L 161.889999 132.700012 L 161.490005 131.51001 L 156.5 133.440002 L 152.399994 132.789978 L 150.5 131.380005 L 149.320007 131.960022 L 145.119995 131.839966 L 143.589996 130.640015 L 138.899994 128.76001 L 138.25 128.890015 L 134.350006 127.539978 L 132.649994 129.150024 L 127.07 128.880005 L 121.790001 125.219971 L 122.480003 124.400024 L 122.580002 117.570007 L 120.550003 114.150024 L 116.879997 113.599976 L 116.269997 111.359985 L 114.25 110.960022 L 111.07 112.039978 L 109.059998 109.190002 L 109.339996 106.589966 L 111.790001 106.309998 L 113.230003 102.710022 L 110.93 101.710022 L 111.07 98.410034 L 114.970001 97.830017 L 112.510002 95.390015 L 111.209999 89.070007 L 111.790001 86.469971 L 111.790001 79.460022 L 110.25 76.580017 L 112.25 68.26001 L 114.129997 68.690002 L 116.290001 71.289978 L 118.75 73.570007 L 121.629997 75.299988 L 125.650002 77.169983 L 128.380005 77.73999 L 130.979996 79.039978 L 134 79.890015 L 136.020004 79.73999 L 136.020004 77.609985 L 137.169998 76.580017 L 139.020004 75.450012 L 139.330002 76.450012 L 139.610001 78.030029 L 137.600006 78.469971 L 137.320007 80.339966 L 138.899994 81.640015 L 139.899994 83.789978 L 140.479996 85.539978 L 141.800003 85.380005 L 141.940002 84.22998 L 141.080002 83.080017 L 140.649994 80.210022 L 141.369995 78.640015 L 140.789993 77.339966 L 140.789993 75.339966 L 142.369995 72.190002 L 141.369995 69.890015 L 139.210007 65.570007 L 139.490005 64.849976 L 140.490005 64.140015 Z M 132.080002 69.400024 L 133.860001 69.27002 L 134.289993 70.5 L 135.669998 69.059998 L 137.75 69.059998 L 138.470001 70.419983 L 137.100006 71.919983 L 137.679993 72.640015 L 137.029999 74.440002 L 135.800003 74.809998 C 135.800003 74.809998 135.020004 74.880005 135.020004 74.599976 C 135.020004 74.299988 136.300003 72.289978 136.300003 72.289978 L 134.800003 71.789978 L 134.479996 73.089966 L 133.850006 73.669983 L 132.479996 71.650024 L 132.050003 69.390015 Z"/>
    <text id="text40" xml:space="preserve" x="159" y="111" font-family="Arial" font-size="15.4" fill="#000000">WA</text>
    <path id="CA" fill="#cc3333" stroke="#000000" stroke-width="0.82" d="M 178.470001 397.070007 L 181.960007 396.640015 L 183.289993 394.850006 L 183.779999 392.230011 L 180.610001 391.720001 L 180.149994 391.100006 L 180.559998 389.299988 L 180.429993 388.799988 L 182.139999 388.23999 L 184.839996 385.709991 L 185.360001 381.269989 L 186.589996 378.25 L 188.339996 376.320007 L 191.460007 374.910004 L 192.940002 373.470001 L 193.009995 371.619995 L 192.110001 371.109985 L 191.210007 370.140015 L 190.190002 364.940002 L 187.789993 360.649994 L 188.289993 357.529999 L 186.139999 356.609985 L 124.599998 264 L 141.440002 203.919983 L 81.669998 189.960022 L 80.330002 194.160004 L 80.18 200.779999 L 75.580002 211.279999 L 72.849998 213.580017 L 72.559998 214.580017 L 70.980003 215.299988 L 69.68 219.039978 L 68.959999 221.910004 L 71.419998 225.640015 L 72.860001 229.380005 L 73.860001 232.529999 L 73.559998 238.279999 L 71.989998 241.02002 L 71.410004 246.179993 L 70.540001 249.47998 L 72.139999 252.940002 L 74.580002 256.959991 L 76.610001 261.279999 L 77.769997 264.880005 L 77.470001 267.75 L 77.190002 268.149994 L 77.190002 270.040009 L 82.220001 275.640015 L 81.790001 277.790009 L 81.220001 279.799988 L 80.629997 281.549988 L 80.779999 288.859985 L 82.660004 292.160004 L 84.379997 294.459991 L 86.82 294.899994 L 87.699997 297.339996 L 86.699997 300.51001 L 84.82 301.940002 L 83.82 301.940002 L 83.099998 305.380005 L 83.529999 307.980011 L 86.400002 311.859985 L 87.839996 316.619995 L 89.139999 320.790009 L 90.309998 323.51001 L 93.339996 328.679993 L 94.629997 330.980011 L 95.059998 333.559998 L 96.5 334.429993 L 96.5 336.579987 L 95.779999 338.309998 L 94.199997 344.630005 L 93.769997 346.359985 L 95.919998 348.790009 L 99.669998 349.220001 L 103.699997 350.799988 L 107.160004 352.660004 L 109.75 352.660004 L 112.349998 355.399994 L 114.629997 359.700012 L 115.639999 361.730011 L 119.110001 363.600006 L 123.419998 364.320007 L 124.720001 366.170013 L 125.300003 369.040009 L 124.019997 369.630005 L 124.309998 370.480011 L 127.18 371.200012 L 129.649994 371.339996 L 132.449997 369.839996 L 135.910004 373.579987 L 136.630005 375.600006 L 138.929993 379.329987 L 139.220001 382.209991 L 139.220001 390.529999 L 139.649994 392.119995 L 148.580002 393.420013 L 166.149994 395.859985 L 178.490005 397.059998 Z M 99.940002 358.220001 L 101.089996 359.589996 L 100.940002 360.73999 L 98.07 360.649994 L 97.559998 359.579987 L 96.989998 358.279999 L 99.949997 358.220001 Z M 101.660004 358.220001 L 102.760002 357.640015 L 105.940002 359.51001 L 108.660004 360.589996 L 107.879997 361.170013 L 103.839996 360.970001 L 102.400002 359.519989 L 101.68 358.230011 Z M 120.110001 375.820007 L 121.699997 377.910004 L 122.419998 378.779999 L 123.790001 379.290009 L 124.309998 377.98999 L 123.43 376.410004 L 121.040001 374.609985 L 120.120003 374.73999 L 120.120003 375.820007 Z M 118.809998 383.519989 L 120.389999 386.320007 L 121.489998 388.040009 L 120.18 388.23999 L 119.029999 387.179993 C 119.029999 387.179993 118.389999 385.880005 118.389999 385.540009 L 118.389999 383.589996 L 118.82 383.51001 Z"/>
    <text id="text41" xml:space="preserve" x="107" y="317" font-family="Arial" font-size="15.4" fill="#000000">CA</text>
    <path id="TN" fill="#cc3333" stroke="#000000" stroke-width="0.82" d="M 670.27002 340.230011 L 624.030029 344.679993 L 609.98999 346.269989 L 605.880005 346.730011 L 602.419983 346.709991 L 602.219971 350.350006 L 594.919983 350.589996 L 588.73999 351.179993 L 581.960022 350.970001 L 580.809998 352.190002 L 580.109985 357.369995 L 578.77002 362.209991 L 578.289978 364.679993 L 577.090027 368.559998 L 576.789978 370.859985 L 573.799988 372.720001 L 575.700012 375.579987 L 575.679993 377.779999 L 575.73999 380.029999 L 666.659973 371.359985 L 667.01001 367.839996 L 668.630005 366.51001 L 671.159973 365.850006 L 671.780029 362.559998 L 675.409973 360.160004 L 679.030029 358.820007 L 682.669983 355.649994 L 686.619995 353.850006 L 687.099976 351.119995 L 690.719971 347.589996 L 691.200012 347.48999 C 691.200012 347.48999 691.22998 348.519989 691.950012 348.519989 C 692.669983 348.519989 693.669983 348.820007 693.669983 348.820007 L 695.700012 345.640015 L 697.539978 345.049988 L 699.570007 345.299988 L 700.98999 342.160004 L 703.619995 339.820007 L 703.98999 338.089996 L 704.27002 334.790009 L 702.369995 334.609985 L 700.039978 336.410004 L 693.789978 336.410004 L 677.460022 338.549988 L 670.26001 340.25 Z"/>
    <text id="text42" xml:space="preserve" x="630" y="366" font-family="Arial" font-size="15.4" fill="#000000">TN</text>
    <path id="AR" fill="#d1dbdd" stroke="#000000" stroke-width="0.82" d="M 578.630005 362.279999 L 575.070007 362.910004 L 570.52002 362.350006 L 570.890015 360.910004 L 573.559998 358.649994 L 574.380005 355.390015 L 572.76001 352.73999 L 502.899994 354.970001 L 504.320007 361.070007 L 504.320007 368.390015 L 505.549988 378.140015 L 505.75 411.769989 L 507.790009 413.519989 L 510.429993 412.290009 L 512.869995 413.320007 L 513.48999 419.149994 L 563.039978 418.149994 L 564.059998 416.290009 L 563.809998 413.130005 L 562.159973 410.480011 L 563.599976 409.170013 L 562.159973 406.929993 L 562.780029 404.700012 L 564.01001 399.730011 L 566.25 397.880005 L 565.630005 395.869995 L 568.929993 391.089996 L 571.349976 389.859985 L 571.25 388.549988 L 570.950012 386.920013 L 573.48999 381.929993 L 575.630005 380.799988 L 575.679993 377.769989 L 575.690002 375.570007 L 573.799988 372.720001 L 576.799988 370.859985 L 577.090027 368.559998 L 578.289978 364.679993 L 578.650024 362.269989 Z"/>
    <text id="text43" xml:space="preserve" x="524" y="395" font-family="Arial" font-size="15.4" fill="#000000">AR</text>
    <path id="MD" fill="#cc3333" stroke="#000000" stroke-width="0.82" d="M 797.77002 281.709991 L 792.409973 282.769989 L 787.830017 282.869995 L 786.190002 276.709991 L 784.47998 268.570007 L 782.200012 263.070007 L 781.049988 259.170013 L 774.369995 260.609985 L 761.099976 263.109985 L 727.72998 269.829987 L 728.75 274.279999 L 729.609985 279.309998 L 729.890015 279.029999 L 731.77002 276.880005 L 733.789978 274.559998 L 735.940002 274 L 737.23999 272.700012 L 738.840027 270.420013 L 739.98999 270.980011 L 742.590027 270.679993 L 744.890015 268.820007 L 746.669983 267.529999 L 748.320007 267.100006 L 749.789978 268.100006 L 752.390015 269.399994 L 754.130005 270.970001 L 755.200012 272.329987 L 758.869995 273.829987 L 758.869995 276.399994 L 763.77002 277.559998 L 764.789978 278.049988 L 766.049988 276.25 L 768.619995 278 L 767.48999 280.200012 L 766.799988 283.75 L 765.219971 286.049988 L 765.219971 287.899994 L 765.799988 289.48999 L 770.309998 290.690002 L 774.140015 290.640015 L 776.900024 291.5 L 778.77002 291.799988 L 779.630005 289.929993 L 778.330017 288.059998 L 778.330017 286.480011 L 776.179993 284.630005 L 774.299988 279.730011 L 775.450012 274.98999 L 775.299988 273.140015 L 774.150024 271.980011 C 774.150024 271.980011 775.450012 270.540009 775.450012 269.980011 C 775.450012 269.399994 775.900024 268.109985 775.900024 268.109985 L 777.630005 266.959991 L 779.349976 265.519989 L 779.780029 266.380005 L 778.47998 267.820007 L 777.340027 271.119995 L 777.630005 272.119995 L 779.210022 272.420013 L 779.640015 277.309998 L 777.77002 278.170013 L 778.059998 281.320007 L 778.48999 281.179993 L 779.48999 279.450012 L 780.929993 281.040009 L 779.48999 282.160004 L 779.210022 285.190002 L 781.51001 288.209991 L 784.969971 288.619995 L 786.409973 287.910004 L 789.280029 291.630005 L 790.51001 292.109985 L 796.429993 289.609985 L 798.210022 286.040009 L 797.830017 281.660004 Z M 783.539978 289.730011 L 784.539978 291.950012 L 784.690002 293.529999 L 785.719971 295.179993 C 785.719971 295.179993 786.5 294.399994 786.5 294.109985 C 786.5 293.820007 785.849976 291.380005 785.849976 291.380005 L 785.190002 289.299988 L 783.549988 289.730011 Z"/>
    <path id="MDline" fill="#d1dbdd" stroke="#000000" stroke-width="1.02694" d="M 767.280029 267.76001 L 810.109985 297.5 L 767.280029 267.75 Z"/>
    <text id="text44" xml:space="preserve" x="823" y="306" font-family="Arial" font-size="12.89" fill="#000000">MD</text>
    <path id="DE" fill="#d1dbdd" stroke="#000000" stroke-width="0.82" d="M 785.150024 260.25 L 785.47998 258.339996 L 785.789978 256.829987 L 784.349976 257.179993 L 782.909973 257.589996 L 780.960022 259.160004 L 782.47998 263.649994 L 784.5 268.679993 L 786.380005 277.309998 L 787.809998 282.910004 L 792.280029 282.76001 L 797.75 281.709991 L 795.72998 275.140015 L 794.869995 275.570007 L 791.679993 273.420013 L 790.109985 269.26001 L 788.400024 266.089996 L 785.599976 263.529999 L 784.820007 261.679993 L 785.150024 260.23999 Z"/>
    <path id="DEline" fill="#d1dbdd" stroke="#000000" stroke-width="1.02694" d="M 816.780029 272.850006 L 792.799988 277.019989 L 816.780029 272.839996 Z"/>
    <text id="text45" xml:space="preserve" x="826" y="277" font-family="Arial" font-size="13.11" fill="#000000">DE</text>
    <path id="NJ" fill="#cc3333" stroke="#000000" stroke-width="0.82" d="M 788.76001 224.850006 L 786.700012 227.289978 L 786.700012 230.02002 L 784.960022 232.76001 L 784.809998 234.200012 L 785.969971 235.330017 L 785.830017 237.47998 L 783.809998 238.51001 L 784.530029 240.940002 L 784.669983 241.950012 L 787.130005 242.23999 L 787.98999 244.539978 L 791.169983 246.690002 L 793.330017 248.130005 L 793.330017 248.850006 L 790.659973 251.25 L 789.219971 253.25 L 787.919983 255.700012 L 785.900024 256.859985 L 785.5 258.299988 L 785.289978 259.369995 L 784.72998 261.670013 L 785.710022 263.670013 L 788.609985 266.26001 L 792.909973 268.269989 L 796.51001 268.850006 L 796.659973 270.140015 L 795.950012 271 L 796.22998 273.450012 L 796.950012 273.450012 L 798.820007 271.290009 L 799.539978 266.980011 L 802.01001 263.380005 L 804.72998 257.630005 L 805.75 252.75 L 805.169983 251.75 L 805.01001 243.410004 L 803.580017 240.399994 L 802.570007 241.119995 L 800.130005 241.410004 L 799.690002 240.970001 L 800.700012 240.109985 L 802.570007 238.390015 L 802.630005 237.410004 L 802.280029 234.350006 L 802.799988 231.910004 L 802.700012 230.160004 L 800.190002 228.600006 L 795.650024 227.549988 L 791.950012 226.320007 L 788.77002 224.859985 Z"/>
    <path id="NJline" fill="#d1dbdd" stroke="#000000" stroke-width="1.02694" d="M 799.369995 247.630005 L 824.049988 247.830017 L 799.380005 247.630005 Z"/>
    <text id="text46" xml:space="preserve" x="833" y="253" font-family="Arial" font-size="12.33" fill="#000000">NJ</text>
    <path id="MI" fill="#cc3333" stroke="#000000" stroke-width="0.82" d="M 578.119995 123.77002 L 576.109985 124.27002 L 571.309998 127.72998 L 569.390015 128.450012 L 567.75 130.280029 L 569.190002 131.280029 L 571.039978 130.469971 L 573.969971 128.75 L 578.549988 124.169983 L 578.150024 123.76001 Z M 588.080017 136.419983 L 583.880005 136.830017 L 580 139.01001 L 577.97998 140.98999 L 576.820007 142.589966 L 575.25 143.289978 L 573.52002 145.880005 L 573.369995 147.039978 L 569.469971 148.890015 L 567.309998 150.630005 L 561.98999 151.5 L 561.400024 152.059998 L 561.400024 152.919983 L 558.219971 154.940002 L 555.789978 155.660034 L 555.150024 156.169983 L 558.48999 160.75 L 565.5 161.75 L 572.830017 163.679993 L 575.369995 164.599976 L 586.150024 167.070007 L 588 169.070007 L 591.159973 170.299988 L 592.890015 179.440002 L 594.119995 180.339966 L 595.150024 181.27002 L 597.97998 175.049988 L 598.869995 171.460022 L 600.590027 167.580017 L 601.309998 167.460022 L 602.309998 168.890015 L 602.880005 168.890015 L 606.909973 166.719971 L 608.210022 168.150024 L 608.619995 168.320007 L 609.77002 167.289978 L 610.799988 164.570007 L 612.960022 163.849976 L 619.150024 163.25 L 620.869995 160.969971 L 625.48999 160.809998 L 630.669983 161.969971 L 632.25 161.969971 L 635.130005 160.669983 L 637.159973 160.820007 L 639.030029 160.26001 L 642.349976 160.660034 L 643.070007 160.97998 L 644.22998 160.669983 L 643.070007 159.820007 L 641.909973 159.25 L 639.030029 156.52002 L 639.030029 150.339966 L 637.72998 149.900024 L 636.719971 150.919983 L 631.25 152.359985 L 629.530029 152.77002 L 626.940002 152.070007 L 626.5 151.77002 L 626.5 146.75 L 625.200012 146.609985 L 622.900024 147.76001 L 618.869995 149.47998 L 612.960022 149.75 L 609.950012 150.780029 L 606.349976 153.940002 L 604.890015 154.799988 L 603.890015 154.799988 L 602.76001 155.52002 L 601.299988 155.119995 L 599.859985 153.940002 L 598.559998 154.799988 L 595.080017 154.950012 L 592.650024 152.47998 L 591.349976 149.75 L 590.070007 148.780029 L 587.190002 147.919983 L 585.169983 147.919983 L 584.02002 146.76001 L 580.830017 149.359985 L 579.97998 150.359985 L 579.26001 149.919983 L 579.530029 147.640015 L 581.690002 144.76001 L 582.140015 142.599976 L 584.159973 141.880005 L 585.440002 139.140015 L 588.76001 138.289978 L 589.059998 137.429993 L 588.039978 136.440002 Z M 647.340027 157.030029 L 645.390015 157.22998 L 643.950012 157.400024 L 643.650024 158.400024 L 644.530029 158.820007 L 645.099976 161.080017 L 647.969971 161.210022 L 649.130005 160.140015 C 649.130005 160.140015 649.049988 158.830017 648.77002 158.690002 C 648.244263 158.181702 647.762512 157.6297 647.330017 157.039978 Z M 632.859985 165.299988 L 630.26001 166.859985 L 627.669983 168.880005 L 627.97998 172.030029 L 628.830017 172.309998 L 630.700012 172.76001 L 631.109985 173.47998 L 628.830017 174.200012 L 626.530029 174.47998 L 625.219971 176.059998 L 624.940002 177.910034 L 625.219971 179.349976 L 625.52002 184.25 L 622.340027 186.119995 L 621.77002 185.960022 L 621.77002 182.210022 L 622.929993 180.059998 L 623.48999 177.900024 L 622.77002 177.179993 L 621.059998 177.900024 L 620.200012 181.650024 L 617.72998 182.630005 L 616.159973 184.380005 L 616.02002 185.22998 L 616.580017 185.969971 L 616.030029 188.27002 L 614.01001 188.700012 L 614.01001 189.700012 L 614.72998 191.859985 L 613.710022 197.330017 L 612.289978 200.929993 L 612.849976 205.080017 L 613.289978 206.080017 L 612.559998 208.25 L 612.289978 208.960022 L 611.97998 211.410004 L 615.159973 216.75 L 617.76001 222.5 L 619.059998 226.809998 L 618.340027 230.960022 L 617.460022 236.279999 L 615.330017 240.880005 L 615.02002 243.320007 L 612.119995 246.049988 L 616.02002 245.919983 L 635.119995 243.919983 L 641.619995 243.02002 L 641.719971 244.51001 L 647.820007 243.450012 L 656.97998 242.080017 L 660.429993 241.690002 L 660.549988 241.140015 L 660.700012 239.869995 L 662.570007 236.559998 L 664.340027 235.02002 L 664.140015 230.5 L 665.580017 229.100006 L 666.549988 228.799988 L 666.75 225.630005 L 668.090027 222.929993 L 669.039978 223.460022 L 669.179993 224.059998 L 669.900024 224.200012 L 671.650024 223.339996 L 671.349976 214.839996 L 668.47998 207.52002 L 666.460022 199.470001 L 664.299988 196.609985 L 661.97998 195.01001 L 660.539978 196.039978 L 657.090027 197.619995 L 655.349976 202.070007 L 652.909973 205.380005 L 651.909973 205.950012 L 650.590027 205.369995 C 650.590027 205.369995 648.289978 204.070007 648.440002 203.48999 C 648.570007 202.929993 648.869995 199.049988 648.869995 199.049988 L 651.900024 197.890015 L 652.599976 194.890015 L 653.200012 192.570007 L 655.330017 191.140015 L 655.059998 182.23999 L 653.599976 180.219971 L 652.450012 179.5 L 651.72998 177.630005 L 652.450012 176.910034 L 653.890015 177.219971 L 654.049988 175.76001 L 651.900024 173.73999 L 650.72998 171.460022 L 648.419983 171.460022 L 644.419983 170.160034 L 639.52002 167.160034 L 637.049988 167.160034 L 636.47998 167.72998 L 635.619995 167.330017 L 632.869995 165.299988 Z"/>
    <text id="text47" xml:space="preserve" x="628" y="225" font-family="Arial" font-size="15.4" fill="#000000">MI</text>
    <path id="DCline" fill="#d1dbdd" stroke="#000000" stroke-width="1.02694" d="M 768.47998 282.470001 L 810.780029 314.529999 Z"/>
    <text id="DC" xml:space="preserve" x="822" y="326" font-family="Arial" font-size="12.36" fill="#000000">DC</text>
    <path id="path1" fill="#cc3333" stroke="#000000" stroke-width="0.82" d="M 772.859985 280.299988 C 772.859985 283.25473 770.464722 285.649994 767.51001 285.649994 C 764.555298 285.649994 762.159973 283.25473 762.159973 280.299988 C 762.159973 277.3508 764.550781 274.959991 767.5 274.959991 C 770.449219 274.959991 772.840027 277.3508 772.840027 280.299988 Z"/>
    <path id="NE" fill="#d1dbdd" stroke="#000000" stroke-width="0.82" d="M 482.649994 271.290009 L 485.519989 277.529999 L 485.399994 279.589996 L 488.480011 284.470001 L 490.899994 287.26001 L 486.399994 287.26001 L 447.670013 286.440002 L 411.320007 285.640015 L 391.5 284.940002 L 392.51001 265.899994 L 363.809998 262.619995 L 367.540009 224.25 L 381.399994 225.169983 L 399.320007 226.200012 L 415.209991 227.200012 L 436.390015 228.22998 L 445.970001 227.820007 L 447.809998 229.839996 L 452.079987 232.47998 L 453.100006 233.299988 L 456.959991 232.070007 L 460.429993 231.660004 L 462.880005 231.460022 L 464.5 232.690002 L 468.119995 234.119995 L 470.769989 235.529999 L 471.170013 236.950012 L 472 238.779999 L 473.619995 238.779999 L 474.339996 238.820007 L 475.130005 242.97998 L 477.730011 250.5 L 478.23999 253.839996 L 480.5 257.200012 L 481 261.75 L 482.429993 265.519989 L 482.630005 271.269989 Z"/>
    <text id="text48" xml:space="preserve" x="423" y="263" font-family="Arial" font-size="15.4" fill="#000000">NE</text>
    <path id="SD" fill="#d1dbdd" stroke="#000000" stroke-width="0.82" d="M 474.049988 238.679993 L 474 238.179993 L 471.429993 233.859985 L 473.079987 229.679993 L 474.410004 224.440002 L 471.929993 222.589996 L 471.589996 220.160004 L 472.309998 217.899994 L 475.130005 217.899994 L 475.029999 213.460022 L 474.720001 186.640015 L 474.179993 183.289978 L 470.549988 180.309998 L 469.670013 178.830017 L 469.619995 177.400024 L 471.420013 176.059998 L 472.790009 174.559998 L 472.98999 172.200012 L 421.089996 170.780029 L 372.269989 167.700012 L 367.529999 224.330017 L 380.529999 225.149994 L 398.290009 226.210022 L 414.109985 227.029999 L 435.299988 228.179993 L 445.950012 227.799988 L 447.700012 229.799988 L 452.339996 232.679993 L 453.019989 233.330017 L 457.070007 232.039978 L 462.890015 231.5 L 464.390015 232.690002 L 468.140015 234.119995 L 470.76001 235.559998 L 471.109985 236.899994 L 472.040009 238.880005 L 474.040009 238.690002 Z"/>
    <text id="text49" xml:space="preserve" x="424" y="206" font-family="Arial" font-size="15.4" fill="#000000">SD</text>
    <path id="ND" fill="#d1dbdd" stroke="#000000" stroke-width="0.82" d="M 473.019989 171.929993 L 472.480011 164.429993 L 470.980011 158.380005 L 469.299988 146.789978 L 468.890015 137.039978 L 467.350006 134.289978 L 465.769989 129.660034 L 465.809998 120.380005 L 466.359985 116.98999 L 464.720001 112.109985 L 439.209991 111.630005 L 422.640015 111.059998 L 399.019989 109.910034 L 378.589996 108.01001 L 372.339996 167.719971 L 421.279999 170.700012 L 473.01001 171.929993 Z"/>
    <text id="text50" xml:space="preserve" x="424" y="151" font-family="Arial" font-size="15.4" fill="#000000">ND</text>
    <g id="legend-g-svg">
        <path id="legend-bg-rect-svg" fill="#000000" stroke="none" opacity="0" d="M 770.466125 470.273804 L 923.161011 470.273804 C 927.027039 470.273804 930.161011 473.407806 930.161011 477.273804 L 930.161011 496.794922 C 930.161011 500.660889 927.027039 503.794922 923.161011 503.794922 L 770.466125 503.794922 C 766.600098 503.794922 763.466125 500.660889 763.466125 496.794922 L 763.466125 477.273804 C 763.466125 473.407806 766.600098 470.273804 770.466125 470.273804 Z"/>
        <g id="g1">
            <path id="legend-rect-svg-cc3333" fill="#cc3333" stroke="#222222" stroke-width="0.5" d="M 783.466125 510.273804 L 797.466125 510.273804 L 797.466125 524.273804 L 783.466125 524.273804 Z"/>
            <text id="text51" xml:space="preserve" x="806" y="522" font-family="Helvetica" font-size="12" fill="#000000">.</text>
        </g>
    </g>
</svg>
